<?xml version="1.0" encoding="utf-8" standalone="no"?>
<!DOCTYPE svg PUBLIC "-//W3C//DTD SVG 1.1//EN"
  "http://www.w3.org/Graphics/SVG/1.1/DTD/svg11.dtd">
<svg xmlns:xlink="http://www.w3.org/1999/xlink" width="1080pt" height="720.72pt" viewBox="0 0 1080 720.72" xmlns="http://www.w3.org/2000/svg" version="1.1">
 <metadata>
  <rdf:RDF xmlns:dc="http://purl.org/dc/elements/1.1/" xmlns:cc="http://creativecommons.org/ns#" xmlns:rdf="http://www.w3.org/1999/02/22-rdf-syntax-ns#">
   <cc:Work>
    <dc:type rdf:resource="http://purl.org/dc/dcmitype/StillImage"/>
    <dc:date>2022-03-11T15:10:51.506166</dc:date>
    <dc:format>image/svg+xml</dc:format>
    <dc:creator>
     <cc:Agent>
      <dc:title>Matplotlib v3.5.0, https://matplotlib.org/</dc:title>
     </cc:Agent>
    </dc:creator>
   </cc:Work>
  </rdf:RDF>
 </metadata>
 <defs>
  <style type="text/css">*{stroke-linejoin: round; stroke-linecap: butt}</style>
 </defs>
 <g id="figure_1">
  <g id="patch_1">
   <path d="M 0 720.72 
L 1080 720.72 
L 1080 0 
L 0 0 
z
" style="fill: #ffffff"/>
  </g>
  <g id="axes_1">
   <g id="patch_2">
    <path d="M 135 641.4408 
L 515.454545 641.4408 
L 515.454545 86.4864 
L 135 86.4864 
z
" style="fill: #ffffff"/>
   </g>
   <g id="patch_3">
    <path d="M 152.293388 641.4408 
L 186.880165 641.4408 
L 186.880165 638.554045 
L 152.293388 638.554045 
z
" clip-path="url(#paf445e18ac)" style="fill: #1f77b4"/>
   </g>
   <g id="patch_4">
    <path d="M 186.880165 641.4408 
L 221.466942 641.4408 
L 221.466942 592.684843 
L 186.880165 592.684843 
z
" clip-path="url(#paf445e18ac)" style="fill: #1f77b4"/>
   </g>
   <g id="patch_5">
    <path d="M 221.466942 641.4408 
L 256.053719 641.4408 
L 256.053719 257.049171 
L 221.466942 257.049171 
z
" clip-path="url(#paf445e18ac)" style="fill: #1f77b4"/>
   </g>
   <g id="patch_6">
    <path d="M 256.053719 641.4408 
L 290.640496 641.4408 
L 290.640496 112.9128 
L 256.053719 112.9128 
z
" clip-path="url(#paf445e18ac)" style="fill: #1f77b4"/>
   </g>
   <g id="patch_7">
    <path d="M 290.640496 641.4408 
L 325.227273 641.4408 
L 325.227273 213.378603 
L 290.640496 213.378603 
z
" clip-path="url(#paf445e18ac)" style="fill: #1f77b4"/>
   </g>
   <g id="patch_8">
    <path d="M 325.227273 641.4408 
L 359.81405 641.4408 
L 359.81405 403.870896 
L 325.227273 403.870896 
z
" clip-path="url(#paf445e18ac)" style="fill: #1f77b4"/>
   </g>
   <g id="patch_9">
    <path d="M 359.81405 641.4408 
L 394.400826 641.4408 
L 394.400826 601.546511 
L 359.81405 601.546511 
z
" clip-path="url(#paf445e18ac)" style="fill: #1f77b4"/>
   </g>
   <g id="patch_10">
    <path d="M 394.400826 641.4408 
L 428.987603 641.4408 
L 428.987603 633.653274 
L 394.400826 633.653274 
z
" clip-path="url(#paf445e18ac)" style="fill: #1f77b4"/>
   </g>
   <g id="patch_11">
    <path d="M 428.987603 641.4408 
L 463.57438 641.4408 
L 463.57438 641.021213 
L 428.987603 641.021213 
z
" clip-path="url(#paf445e18ac)" style="fill: #1f77b4"/>
   </g>
   <g id="patch_12">
    <path d="M 463.57438 641.4408 
L 498.161157 641.4408 
L 498.161157 641.39045 
L 463.57438 641.39045 
z
" clip-path="url(#paf445e18ac)" style="fill: #1f77b4"/>
   </g>
   <g id="matplotlib.axis_1">
    <g id="xtick_1">
     <g id="line2d_1">
      <defs>
       <path id="m260c8f4899" d="M 0 0 
L 0 3.5 
" style="stroke: #000000; stroke-width: 0.8"/>
      </defs>
      <g>
       <use xlink:href="#m260c8f4899" x="142.120807" y="641.4408" style="stroke: #000000; stroke-width: 0.8"/>
      </g>
     </g>
     <g id="text_1">
      <!-- 0 -->
      <g transform="translate(138.939557 656.039238)scale(0.1 -0.1)">
       <defs>
        <path id="DejaVuSans-30" d="M 2034 4250 
Q 1547 4250 1301 3770 
Q 1056 3291 1056 2328 
Q 1056 1369 1301 889 
Q 1547 409 2034 409 
Q 2525 409 2770 889 
Q 3016 1369 3016 2328 
Q 3016 3291 2770 3770 
Q 2525 4250 2034 4250 
z
M 2034 4750 
Q 2819 4750 3233 4129 
Q 3647 3509 3647 2328 
Q 3647 1150 3233 529 
Q 2819 -91 2034 -91 
Q 1250 -91 836 529 
Q 422 1150 422 2328 
Q 422 3509 836 4129 
Q 1250 4750 2034 4750 
z
" transform="scale(0.015625)"/>
       </defs>
       <use xlink:href="#DejaVuSans-30"/>
      </g>
     </g>
    </g>
    <g id="xtick_2">
     <g id="line2d_2">
      <g>
       <use xlink:href="#m260c8f4899" x="192.983714" y="641.4408" style="stroke: #000000; stroke-width: 0.8"/>
      </g>
     </g>
     <g id="text_2">
      <!-- 5 -->
      <g transform="translate(189.802464 656.039238)scale(0.1 -0.1)">
       <defs>
        <path id="DejaVuSans-35" d="M 691 4666 
L 3169 4666 
L 3169 4134 
L 1269 4134 
L 1269 2991 
Q 1406 3038 1543 3061 
Q 1681 3084 1819 3084 
Q 2600 3084 3056 2656 
Q 3513 2228 3513 1497 
Q 3513 744 3044 326 
Q 2575 -91 1722 -91 
Q 1428 -91 1123 -41 
Q 819 9 494 109 
L 494 744 
Q 775 591 1075 516 
Q 1375 441 1709 441 
Q 2250 441 2565 725 
Q 2881 1009 2881 1497 
Q 2881 1984 2565 2268 
Q 2250 2553 1709 2553 
Q 1456 2553 1204 2497 
Q 953 2441 691 2322 
L 691 4666 
z
" transform="scale(0.015625)"/>
       </defs>
       <use xlink:href="#DejaVuSans-35"/>
      </g>
     </g>
    </g>
    <g id="xtick_3">
     <g id="line2d_3">
      <g>
       <use xlink:href="#m260c8f4899" x="243.846621" y="641.4408" style="stroke: #000000; stroke-width: 0.8"/>
      </g>
     </g>
     <g id="text_3">
      <!-- 10 -->
      <g transform="translate(237.484121 656.039238)scale(0.1 -0.1)">
       <defs>
        <path id="DejaVuSans-31" d="M 794 531 
L 1825 531 
L 1825 4091 
L 703 3866 
L 703 4441 
L 1819 4666 
L 2450 4666 
L 2450 531 
L 3481 531 
L 3481 0 
L 794 0 
L 794 531 
z
" transform="scale(0.015625)"/>
       </defs>
       <use xlink:href="#DejaVuSans-31"/>
       <use xlink:href="#DejaVuSans-30" x="63.623047"/>
      </g>
     </g>
    </g>
    <g id="xtick_4">
     <g id="line2d_4">
      <g>
       <use xlink:href="#m260c8f4899" x="294.709528" y="641.4408" style="stroke: #000000; stroke-width: 0.8"/>
      </g>
     </g>
     <g id="text_4">
      <!-- 15 -->
      <g transform="translate(288.347028 656.039238)scale(0.1 -0.1)">
       <use xlink:href="#DejaVuSans-31"/>
       <use xlink:href="#DejaVuSans-35" x="63.623047"/>
      </g>
     </g>
    </g>
    <g id="xtick_5">
     <g id="line2d_5">
      <g>
       <use xlink:href="#m260c8f4899" x="345.572436" y="641.4408" style="stroke: #000000; stroke-width: 0.8"/>
      </g>
     </g>
     <g id="text_5">
      <!-- 20 -->
      <g transform="translate(339.209936 656.039238)scale(0.1 -0.1)">
       <defs>
        <path id="DejaVuSans-32" d="M 1228 531 
L 3431 531 
L 3431 0 
L 469 0 
L 469 531 
Q 828 903 1448 1529 
Q 2069 2156 2228 2338 
Q 2531 2678 2651 2914 
Q 2772 3150 2772 3378 
Q 2772 3750 2511 3984 
Q 2250 4219 1831 4219 
Q 1534 4219 1204 4116 
Q 875 4013 500 3803 
L 500 4441 
Q 881 4594 1212 4672 
Q 1544 4750 1819 4750 
Q 2544 4750 2975 4387 
Q 3406 4025 3406 3419 
Q 3406 3131 3298 2873 
Q 3191 2616 2906 2266 
Q 2828 2175 2409 1742 
Q 1991 1309 1228 531 
z
" transform="scale(0.015625)"/>
       </defs>
       <use xlink:href="#DejaVuSans-32"/>
       <use xlink:href="#DejaVuSans-30" x="63.623047"/>
      </g>
     </g>
    </g>
    <g id="xtick_6">
     <g id="line2d_6">
      <g>
       <use xlink:href="#m260c8f4899" x="396.435343" y="641.4408" style="stroke: #000000; stroke-width: 0.8"/>
      </g>
     </g>
     <g id="text_6">
      <!-- 25 -->
      <g transform="translate(390.072843 656.039238)scale(0.1 -0.1)">
       <use xlink:href="#DejaVuSans-32"/>
       <use xlink:href="#DejaVuSans-35" x="63.623047"/>
      </g>
     </g>
    </g>
    <g id="xtick_7">
     <g id="line2d_7">
      <g>
       <use xlink:href="#m260c8f4899" x="447.29825" y="641.4408" style="stroke: #000000; stroke-width: 0.8"/>
      </g>
     </g>
     <g id="text_7">
      <!-- 30 -->
      <g transform="translate(440.93575 656.039238)scale(0.1 -0.1)">
       <defs>
        <path id="DejaVuSans-33" d="M 2597 2516 
Q 3050 2419 3304 2112 
Q 3559 1806 3559 1356 
Q 3559 666 3084 287 
Q 2609 -91 1734 -91 
Q 1441 -91 1130 -33 
Q 819 25 488 141 
L 488 750 
Q 750 597 1062 519 
Q 1375 441 1716 441 
Q 2309 441 2620 675 
Q 2931 909 2931 1356 
Q 2931 1769 2642 2001 
Q 2353 2234 1838 2234 
L 1294 2234 
L 1294 2753 
L 1863 2753 
Q 2328 2753 2575 2939 
Q 2822 3125 2822 3475 
Q 2822 3834 2567 4026 
Q 2313 4219 1838 4219 
Q 1578 4219 1281 4162 
Q 984 4106 628 3988 
L 628 4550 
Q 988 4650 1302 4700 
Q 1616 4750 1894 4750 
Q 2613 4750 3031 4423 
Q 3450 4097 3450 3541 
Q 3450 3153 3228 2886 
Q 3006 2619 2597 2516 
z
" transform="scale(0.015625)"/>
       </defs>
       <use xlink:href="#DejaVuSans-33"/>
       <use xlink:href="#DejaVuSans-30" x="63.623047"/>
      </g>
     </g>
    </g>
    <g id="xtick_8">
     <g id="line2d_8">
      <g>
       <use xlink:href="#m260c8f4899" x="498.161157" y="641.4408" style="stroke: #000000; stroke-width: 0.8"/>
      </g>
     </g>
     <g id="text_8">
      <!-- 35 -->
      <g transform="translate(491.798657 656.039238)scale(0.1 -0.1)">
       <use xlink:href="#DejaVuSans-33"/>
       <use xlink:href="#DejaVuSans-35" x="63.623047"/>
      </g>
     </g>
    </g>
   </g>
   <g id="matplotlib.axis_2">
    <g id="ytick_1">
     <g id="line2d_9">
      <defs>
       <path id="md215288ecd" d="M 0 0 
L -3.5 0 
" style="stroke: #000000; stroke-width: 0.8"/>
      </defs>
      <g>
       <use xlink:href="#md215288ecd" x="135" y="641.4408" style="stroke: #000000; stroke-width: 0.8"/>
      </g>
     </g>
     <g id="text_9">
      <!-- 0 -->
      <g transform="translate(121.6375 645.240019)scale(0.1 -0.1)">
       <use xlink:href="#DejaVuSans-30"/>
      </g>
     </g>
    </g>
    <g id="ytick_2">
     <g id="line2d_10">
      <g>
       <use xlink:href="#md215288ecd" x="135" y="557.52349" style="stroke: #000000; stroke-width: 0.8"/>
      </g>
     </g>
     <g id="text_10">
      <!-- 5000 -->
      <g transform="translate(102.55 561.322709)scale(0.1 -0.1)">
       <use xlink:href="#DejaVuSans-35"/>
       <use xlink:href="#DejaVuSans-30" x="63.623047"/>
       <use xlink:href="#DejaVuSans-30" x="127.246094"/>
       <use xlink:href="#DejaVuSans-30" x="190.869141"/>
      </g>
     </g>
    </g>
    <g id="ytick_3">
     <g id="line2d_11">
      <g>
       <use xlink:href="#md215288ecd" x="135" y="473.606181" style="stroke: #000000; stroke-width: 0.8"/>
      </g>
     </g>
     <g id="text_11">
      <!-- 10000 -->
      <g transform="translate(96.1875 477.405399)scale(0.1 -0.1)">
       <use xlink:href="#DejaVuSans-31"/>
       <use xlink:href="#DejaVuSans-30" x="63.623047"/>
       <use xlink:href="#DejaVuSans-30" x="127.246094"/>
       <use xlink:href="#DejaVuSans-30" x="190.869141"/>
       <use xlink:href="#DejaVuSans-30" x="254.492188"/>
      </g>
     </g>
    </g>
    <g id="ytick_4">
     <g id="line2d_12">
      <g>
       <use xlink:href="#md215288ecd" x="135" y="389.688871" style="stroke: #000000; stroke-width: 0.8"/>
      </g>
     </g>
     <g id="text_12">
      <!-- 15000 -->
      <g transform="translate(96.1875 393.48809)scale(0.1 -0.1)">
       <use xlink:href="#DejaVuSans-31"/>
       <use xlink:href="#DejaVuSans-35" x="63.623047"/>
       <use xlink:href="#DejaVuSans-30" x="127.246094"/>
       <use xlink:href="#DejaVuSans-30" x="190.869141"/>
       <use xlink:href="#DejaVuSans-30" x="254.492188"/>
      </g>
     </g>
    </g>
    <g id="ytick_5">
     <g id="line2d_13">
      <g>
       <use xlink:href="#md215288ecd" x="135" y="305.771561" style="stroke: #000000; stroke-width: 0.8"/>
      </g>
     </g>
     <g id="text_13">
      <!-- 20000 -->
      <g transform="translate(96.1875 309.57078)scale(0.1 -0.1)">
       <use xlink:href="#DejaVuSans-32"/>
       <use xlink:href="#DejaVuSans-30" x="63.623047"/>
       <use xlink:href="#DejaVuSans-30" x="127.246094"/>
       <use xlink:href="#DejaVuSans-30" x="190.869141"/>
       <use xlink:href="#DejaVuSans-30" x="254.492188"/>
      </g>
     </g>
    </g>
    <g id="ytick_6">
     <g id="line2d_14">
      <g>
       <use xlink:href="#md215288ecd" x="135" y="221.854251" style="stroke: #000000; stroke-width: 0.8"/>
      </g>
     </g>
     <g id="text_14">
      <!-- 25000 -->
      <g transform="translate(96.1875 225.65347)scale(0.1 -0.1)">
       <use xlink:href="#DejaVuSans-32"/>
       <use xlink:href="#DejaVuSans-35" x="63.623047"/>
       <use xlink:href="#DejaVuSans-30" x="127.246094"/>
       <use xlink:href="#DejaVuSans-30" x="190.869141"/>
       <use xlink:href="#DejaVuSans-30" x="254.492188"/>
      </g>
     </g>
    </g>
    <g id="ytick_7">
     <g id="line2d_15">
      <g>
       <use xlink:href="#md215288ecd" x="135" y="137.936942" style="stroke: #000000; stroke-width: 0.8"/>
      </g>
     </g>
     <g id="text_15">
      <!-- 30000 -->
      <g transform="translate(96.1875 141.736161)scale(0.1 -0.1)">
       <use xlink:href="#DejaVuSans-33"/>
       <use xlink:href="#DejaVuSans-30" x="63.623047"/>
       <use xlink:href="#DejaVuSans-30" x="127.246094"/>
       <use xlink:href="#DejaVuSans-30" x="190.869141"/>
       <use xlink:href="#DejaVuSans-30" x="254.492188"/>
      </g>
     </g>
    </g>
   </g>
   <g id="patch_13">
    <path d="M 135 641.4408 
L 135 86.4864 
" style="fill: none; stroke: #000000; stroke-width: 0.8; stroke-linejoin: miter; stroke-linecap: square"/>
   </g>
   <g id="patch_14">
    <path d="M 515.454545 641.4408 
L 515.454545 86.4864 
" style="fill: none; stroke: #000000; stroke-width: 0.8; stroke-linejoin: miter; stroke-linecap: square"/>
   </g>
   <g id="patch_15">
    <path d="M 135 641.4408 
L 515.454545 641.4408 
" style="fill: none; stroke: #000000; stroke-width: 0.8; stroke-linejoin: miter; stroke-linecap: square"/>
   </g>
   <g id="patch_16">
    <path d="M 135 86.4864 
L 515.454545 86.4864 
" style="fill: none; stroke: #000000; stroke-width: 0.8; stroke-linejoin: miter; stroke-linecap: square"/>
   </g>
   <g id="text_16">
    <!-- Poisson distribution used for schools -->
    <g transform="translate(215.903523 80.4864)scale(0.12 -0.12)">
     <defs>
      <path id="DejaVuSans-50" d="M 1259 4147 
L 1259 2394 
L 2053 2394 
Q 2494 2394 2734 2622 
Q 2975 2850 2975 3272 
Q 2975 3691 2734 3919 
Q 2494 4147 2053 4147 
L 1259 4147 
z
M 628 4666 
L 2053 4666 
Q 2838 4666 3239 4311 
Q 3641 3956 3641 3272 
Q 3641 2581 3239 2228 
Q 2838 1875 2053 1875 
L 1259 1875 
L 1259 0 
L 628 0 
L 628 4666 
z
" transform="scale(0.015625)"/>
      <path id="DejaVuSans-6f" d="M 1959 3097 
Q 1497 3097 1228 2736 
Q 959 2375 959 1747 
Q 959 1119 1226 758 
Q 1494 397 1959 397 
Q 2419 397 2687 759 
Q 2956 1122 2956 1747 
Q 2956 2369 2687 2733 
Q 2419 3097 1959 3097 
z
M 1959 3584 
Q 2709 3584 3137 3096 
Q 3566 2609 3566 1747 
Q 3566 888 3137 398 
Q 2709 -91 1959 -91 
Q 1206 -91 779 398 
Q 353 888 353 1747 
Q 353 2609 779 3096 
Q 1206 3584 1959 3584 
z
" transform="scale(0.015625)"/>
      <path id="DejaVuSans-69" d="M 603 3500 
L 1178 3500 
L 1178 0 
L 603 0 
L 603 3500 
z
M 603 4863 
L 1178 4863 
L 1178 4134 
L 603 4134 
L 603 4863 
z
" transform="scale(0.015625)"/>
      <path id="DejaVuSans-73" d="M 2834 3397 
L 2834 2853 
Q 2591 2978 2328 3040 
Q 2066 3103 1784 3103 
Q 1356 3103 1142 2972 
Q 928 2841 928 2578 
Q 928 2378 1081 2264 
Q 1234 2150 1697 2047 
L 1894 2003 
Q 2506 1872 2764 1633 
Q 3022 1394 3022 966 
Q 3022 478 2636 193 
Q 2250 -91 1575 -91 
Q 1294 -91 989 -36 
Q 684 19 347 128 
L 347 722 
Q 666 556 975 473 
Q 1284 391 1588 391 
Q 1994 391 2212 530 
Q 2431 669 2431 922 
Q 2431 1156 2273 1281 
Q 2116 1406 1581 1522 
L 1381 1569 
Q 847 1681 609 1914 
Q 372 2147 372 2553 
Q 372 3047 722 3315 
Q 1072 3584 1716 3584 
Q 2034 3584 2315 3537 
Q 2597 3491 2834 3397 
z
" transform="scale(0.015625)"/>
      <path id="DejaVuSans-6e" d="M 3513 2113 
L 3513 0 
L 2938 0 
L 2938 2094 
Q 2938 2591 2744 2837 
Q 2550 3084 2163 3084 
Q 1697 3084 1428 2787 
Q 1159 2491 1159 1978 
L 1159 0 
L 581 0 
L 581 3500 
L 1159 3500 
L 1159 2956 
Q 1366 3272 1645 3428 
Q 1925 3584 2291 3584 
Q 2894 3584 3203 3211 
Q 3513 2838 3513 2113 
z
" transform="scale(0.015625)"/>
      <path id="DejaVuSans-20" transform="scale(0.015625)"/>
      <path id="DejaVuSans-64" d="M 2906 2969 
L 2906 4863 
L 3481 4863 
L 3481 0 
L 2906 0 
L 2906 525 
Q 2725 213 2448 61 
Q 2172 -91 1784 -91 
Q 1150 -91 751 415 
Q 353 922 353 1747 
Q 353 2572 751 3078 
Q 1150 3584 1784 3584 
Q 2172 3584 2448 3432 
Q 2725 3281 2906 2969 
z
M 947 1747 
Q 947 1113 1208 752 
Q 1469 391 1925 391 
Q 2381 391 2643 752 
Q 2906 1113 2906 1747 
Q 2906 2381 2643 2742 
Q 2381 3103 1925 3103 
Q 1469 3103 1208 2742 
Q 947 2381 947 1747 
z
" transform="scale(0.015625)"/>
      <path id="DejaVuSans-74" d="M 1172 4494 
L 1172 3500 
L 2356 3500 
L 2356 3053 
L 1172 3053 
L 1172 1153 
Q 1172 725 1289 603 
Q 1406 481 1766 481 
L 2356 481 
L 2356 0 
L 1766 0 
Q 1100 0 847 248 
Q 594 497 594 1153 
L 594 3053 
L 172 3053 
L 172 3500 
L 594 3500 
L 594 4494 
L 1172 4494 
z
" transform="scale(0.015625)"/>
      <path id="DejaVuSans-72" d="M 2631 2963 
Q 2534 3019 2420 3045 
Q 2306 3072 2169 3072 
Q 1681 3072 1420 2755 
Q 1159 2438 1159 1844 
L 1159 0 
L 581 0 
L 581 3500 
L 1159 3500 
L 1159 2956 
Q 1341 3275 1631 3429 
Q 1922 3584 2338 3584 
Q 2397 3584 2469 3576 
Q 2541 3569 2628 3553 
L 2631 2963 
z
" transform="scale(0.015625)"/>
      <path id="DejaVuSans-62" d="M 3116 1747 
Q 3116 2381 2855 2742 
Q 2594 3103 2138 3103 
Q 1681 3103 1420 2742 
Q 1159 2381 1159 1747 
Q 1159 1113 1420 752 
Q 1681 391 2138 391 
Q 2594 391 2855 752 
Q 3116 1113 3116 1747 
z
M 1159 2969 
Q 1341 3281 1617 3432 
Q 1894 3584 2278 3584 
Q 2916 3584 3314 3078 
Q 3713 2572 3713 1747 
Q 3713 922 3314 415 
Q 2916 -91 2278 -91 
Q 1894 -91 1617 61 
Q 1341 213 1159 525 
L 1159 0 
L 581 0 
L 581 4863 
L 1159 4863 
L 1159 2969 
z
" transform="scale(0.015625)"/>
      <path id="DejaVuSans-75" d="M 544 1381 
L 544 3500 
L 1119 3500 
L 1119 1403 
Q 1119 906 1312 657 
Q 1506 409 1894 409 
Q 2359 409 2629 706 
Q 2900 1003 2900 1516 
L 2900 3500 
L 3475 3500 
L 3475 0 
L 2900 0 
L 2900 538 
Q 2691 219 2414 64 
Q 2138 -91 1772 -91 
Q 1169 -91 856 284 
Q 544 659 544 1381 
z
M 1991 3584 
L 1991 3584 
z
" transform="scale(0.015625)"/>
      <path id="DejaVuSans-65" d="M 3597 1894 
L 3597 1613 
L 953 1613 
Q 991 1019 1311 708 
Q 1631 397 2203 397 
Q 2534 397 2845 478 
Q 3156 559 3463 722 
L 3463 178 
Q 3153 47 2828 -22 
Q 2503 -91 2169 -91 
Q 1331 -91 842 396 
Q 353 884 353 1716 
Q 353 2575 817 3079 
Q 1281 3584 2069 3584 
Q 2775 3584 3186 3129 
Q 3597 2675 3597 1894 
z
M 3022 2063 
Q 3016 2534 2758 2815 
Q 2500 3097 2075 3097 
Q 1594 3097 1305 2825 
Q 1016 2553 972 2059 
L 3022 2063 
z
" transform="scale(0.015625)"/>
      <path id="DejaVuSans-66" d="M 2375 4863 
L 2375 4384 
L 1825 4384 
Q 1516 4384 1395 4259 
Q 1275 4134 1275 3809 
L 1275 3500 
L 2222 3500 
L 2222 3053 
L 1275 3053 
L 1275 0 
L 697 0 
L 697 3053 
L 147 3053 
L 147 3500 
L 697 3500 
L 697 3744 
Q 697 4328 969 4595 
Q 1241 4863 1831 4863 
L 2375 4863 
z
" transform="scale(0.015625)"/>
      <path id="DejaVuSans-63" d="M 3122 3366 
L 3122 2828 
Q 2878 2963 2633 3030 
Q 2388 3097 2138 3097 
Q 1578 3097 1268 2742 
Q 959 2388 959 1747 
Q 959 1106 1268 751 
Q 1578 397 2138 397 
Q 2388 397 2633 464 
Q 2878 531 3122 666 
L 3122 134 
Q 2881 22 2623 -34 
Q 2366 -91 2075 -91 
Q 1284 -91 818 406 
Q 353 903 353 1747 
Q 353 2603 823 3093 
Q 1294 3584 2113 3584 
Q 2378 3584 2631 3529 
Q 2884 3475 3122 3366 
z
" transform="scale(0.015625)"/>
      <path id="DejaVuSans-68" d="M 3513 2113 
L 3513 0 
L 2938 0 
L 2938 2094 
Q 2938 2591 2744 2837 
Q 2550 3084 2163 3084 
Q 1697 3084 1428 2787 
Q 1159 2491 1159 1978 
L 1159 0 
L 581 0 
L 581 4863 
L 1159 4863 
L 1159 2956 
Q 1366 3272 1645 3428 
Q 1925 3584 2291 3584 
Q 2894 3584 3203 3211 
Q 3513 2838 3513 2113 
z
" transform="scale(0.015625)"/>
      <path id="DejaVuSans-6c" d="M 603 4863 
L 1178 4863 
L 1178 0 
L 603 0 
L 603 4863 
z
" transform="scale(0.015625)"/>
     </defs>
     <use xlink:href="#DejaVuSans-50"/>
     <use xlink:href="#DejaVuSans-6f" x="56.677734"/>
     <use xlink:href="#DejaVuSans-69" x="117.859375"/>
     <use xlink:href="#DejaVuSans-73" x="145.642578"/>
     <use xlink:href="#DejaVuSans-73" x="197.742188"/>
     <use xlink:href="#DejaVuSans-6f" x="249.841797"/>
     <use xlink:href="#DejaVuSans-6e" x="311.023438"/>
     <use xlink:href="#DejaVuSans-20" x="374.402344"/>
     <use xlink:href="#DejaVuSans-64" x="406.189453"/>
     <use xlink:href="#DejaVuSans-69" x="469.666016"/>
     <use xlink:href="#DejaVuSans-73" x="497.449219"/>
     <use xlink:href="#DejaVuSans-74" x="549.548828"/>
     <use xlink:href="#DejaVuSans-72" x="588.757812"/>
     <use xlink:href="#DejaVuSans-69" x="629.871094"/>
     <use xlink:href="#DejaVuSans-62" x="657.654297"/>
     <use xlink:href="#DejaVuSans-75" x="721.130859"/>
     <use xlink:href="#DejaVuSans-74" x="784.509766"/>
     <use xlink:href="#DejaVuSans-69" x="823.71875"/>
     <use xlink:href="#DejaVuSans-6f" x="851.501953"/>
     <use xlink:href="#DejaVuSans-6e" x="912.683594"/>
     <use xlink:href="#DejaVuSans-20" x="976.0625"/>
     <use xlink:href="#DejaVuSans-75" x="1007.849609"/>
     <use xlink:href="#DejaVuSans-73" x="1071.228516"/>
     <use xlink:href="#DejaVuSans-65" x="1123.328125"/>
     <use xlink:href="#DejaVuSans-64" x="1184.851562"/>
     <use xlink:href="#DejaVuSans-20" x="1248.328125"/>
     <use xlink:href="#DejaVuSans-66" x="1280.115234"/>
     <use xlink:href="#DejaVuSans-6f" x="1315.320312"/>
     <use xlink:href="#DejaVuSans-72" x="1376.501953"/>
     <use xlink:href="#DejaVuSans-20" x="1417.615234"/>
     <use xlink:href="#DejaVuSans-73" x="1449.402344"/>
     <use xlink:href="#DejaVuSans-63" x="1501.501953"/>
     <use xlink:href="#DejaVuSans-68" x="1556.482422"/>
     <use xlink:href="#DejaVuSans-6f" x="1619.861328"/>
     <use xlink:href="#DejaVuSans-6f" x="1681.042969"/>
     <use xlink:href="#DejaVuSans-6c" x="1742.224609"/>
     <use xlink:href="#DejaVuSans-73" x="1770.007812"/>
    </g>
   </g>
  </g>
  <g id="axes_2">
   <g id="patch_17">
    <path d="M 591.545455 641.4408 
L 972 641.4408 
L 972 86.4864 
L 591.545455 86.4864 
z
" style="fill: #ffffff"/>
   </g>
   <g id="patch_18">
    <path d="M 608.838843 641.4408 
L 612.297521 641.4408 
L 612.297521 112.9128 
L 608.838843 112.9128 
z
" clip-path="url(#pb5c88d05f1)" style="fill: #1f77b4"/>
   </g>
   <g id="patch_19">
    <path d="M 612.297521 641.4408 
L 615.756198 641.4408 
L 615.756198 276.222013 
L 612.297521 276.222013 
z
" clip-path="url(#pb5c88d05f1)" style="fill: #1f77b4"/>
   </g>
   <g id="patch_20">
    <path d="M 615.756198 641.4408 
L 619.214876 641.4408 
L 619.214876 380.907407 
L 615.756198 380.907407 
z
" clip-path="url(#pb5c88d05f1)" style="fill: #1f77b4"/>
   </g>
   <g id="patch_21">
    <path d="M 619.214876 641.4408 
L 622.673554 641.4408 
L 622.673554 444.9368 
L 619.214876 444.9368 
z
" clip-path="url(#pb5c88d05f1)" style="fill: #1f77b4"/>
   </g>
   <g id="patch_22">
    <path d="M 622.673554 641.4408 
L 626.132231 641.4408 
L 626.132231 490.440051 
L 622.673554 490.440051 
z
" clip-path="url(#pb5c88d05f1)" style="fill: #1f77b4"/>
   </g>
   <g id="patch_23">
    <path d="M 626.132231 641.4408 
L 629.590909 641.4408 
L 629.590909 517.975482 
L 626.132231 517.975482 
z
" clip-path="url(#pb5c88d05f1)" style="fill: #1f77b4"/>
   </g>
   <g id="patch_24">
    <path d="M 629.590909 641.4408 
L 633.049587 641.4408 
L 633.049587 540.054583 
L 629.590909 540.054583 
z
" clip-path="url(#pb5c88d05f1)" style="fill: #1f77b4"/>
   </g>
   <g id="patch_25">
    <path d="M 633.049587 641.4408 
L 636.508264 641.4408 
L 636.508264 563.199572 
L 633.049587 563.199572 
z
" clip-path="url(#pb5c88d05f1)" style="fill: #1f77b4"/>
   </g>
   <g id="patch_26">
    <path d="M 636.508264 641.4408 
L 639.966942 641.4408 
L 639.966942 571.701294 
L 636.508264 571.701294 
z
" clip-path="url(#pb5c88d05f1)" style="fill: #1f77b4"/>
   </g>
   <g id="patch_27">
    <path d="M 639.966942 641.4408 
L 643.42562 641.4408 
L 643.42562 584.060515 
L 639.966942 584.060515 
z
" clip-path="url(#pb5c88d05f1)" style="fill: #1f77b4"/>
   </g>
   <g id="patch_28">
    <path d="M 643.42562 641.4408 
L 646.884298 641.4408 
L 646.884298 591.877025 
L 643.42562 591.877025 
z
" clip-path="url(#pb5c88d05f1)" style="fill: #1f77b4"/>
   </g>
   <g id="patch_29">
    <path d="M 646.884298 641.4408 
L 650.342975 641.4408 
L 650.342975 600.226478 
L 646.884298 600.226478 
z
" clip-path="url(#pb5c88d05f1)" style="fill: #1f77b4"/>
   </g>
   <g id="patch_30">
    <path d="M 650.342975 641.4408 
L 653.801653 641.4408 
L 653.801653 603.170358 
L 650.342975 603.170358 
z
" clip-path="url(#pb5c88d05f1)" style="fill: #1f77b4"/>
   </g>
   <g id="patch_31">
    <path d="M 653.801653 641.4408 
L 657.260331 641.4408 
L 657.260331 607.40853 
L 653.801653 607.40853 
z
" clip-path="url(#pb5c88d05f1)" style="fill: #1f77b4"/>
   </g>
   <g id="patch_32">
    <path d="M 657.260331 641.4408 
L 660.719008 641.4408 
L 660.719008 612.71259 
L 657.260331 612.71259 
z
" clip-path="url(#pb5c88d05f1)" style="fill: #1f77b4"/>
   </g>
   <g id="patch_33">
    <path d="M 660.719008 641.4408 
L 664.177686 641.4408 
L 664.177686 616.417819 
L 660.719008 616.417819 
z
" clip-path="url(#pb5c88d05f1)" style="fill: #1f77b4"/>
   </g>
   <g id="patch_34">
    <path d="M 664.177686 641.4408 
L 667.636364 641.4408 
L 667.636364 617.965894 
L 664.177686 617.965894 
z
" clip-path="url(#pb5c88d05f1)" style="fill: #1f77b4"/>
   </g>
   <g id="patch_35">
    <path d="M 667.636364 641.4408 
L 671.095041 641.4408 
L 671.095041 621.036665 
L 667.636364 621.036665 
z
" clip-path="url(#pb5c88d05f1)" style="fill: #1f77b4"/>
   </g>
   <g id="patch_36">
    <path d="M 671.095041 641.4408 
L 674.553719 641.4408 
L 674.553719 621.620366 
L 671.095041 621.620366 
z
" clip-path="url(#pb5c88d05f1)" style="fill: #1f77b4"/>
   </g>
   <g id="patch_37">
    <path d="M 674.553719 641.4408 
L 678.012397 641.4408 
L 678.012397 624.234328 
L 674.553719 624.234328 
z
" clip-path="url(#pb5c88d05f1)" style="fill: #1f77b4"/>
   </g>
   <g id="patch_38">
    <path d="M 678.012397 641.4408 
L 681.471074 641.4408 
L 681.471074 625.985429 
L 678.012397 625.985429 
z
" clip-path="url(#pb5c88d05f1)" style="fill: #1f77b4"/>
   </g>
   <g id="patch_39">
    <path d="M 681.471074 641.4408 
L 684.929752 641.4408 
L 684.929752 627.00056 
L 681.471074 627.00056 
z
" clip-path="url(#pb5c88d05f1)" style="fill: #1f77b4"/>
   </g>
   <g id="patch_40">
    <path d="M 684.929752 641.4408 
L 688.38843 641.4408 
L 688.38843 628.244096 
L 684.929752 628.244096 
z
" clip-path="url(#pb5c88d05f1)" style="fill: #1f77b4"/>
   </g>
   <g id="patch_41">
    <path d="M 688.38843 641.4408 
L 691.847107 641.4408 
L 691.847107 629.056201 
L 688.38843 629.056201 
z
" clip-path="url(#pb5c88d05f1)" style="fill: #1f77b4"/>
   </g>
   <g id="patch_42">
    <path d="M 691.847107 641.4408 
L 695.305785 641.4408 
L 695.305785 630.934193 
L 691.847107 630.934193 
z
" clip-path="url(#pb5c88d05f1)" style="fill: #1f77b4"/>
   </g>
   <g id="patch_43">
    <path d="M 695.305785 641.4408 
L 698.764463 641.4408 
L 698.764463 631.289489 
L 695.305785 631.289489 
z
" clip-path="url(#pb5c88d05f1)" style="fill: #1f77b4"/>
   </g>
   <g id="patch_44">
    <path d="M 698.764463 641.4408 
L 702.22314 641.4408 
L 702.22314 632.60916 
L 698.764463 632.60916 
z
" clip-path="url(#pb5c88d05f1)" style="fill: #1f77b4"/>
   </g>
   <g id="patch_45">
    <path d="M 702.22314 641.4408 
L 705.681818 641.4408 
L 705.681818 631.695542 
L 702.22314 631.695542 
z
" clip-path="url(#pb5c88d05f1)" style="fill: #1f77b4"/>
   </g>
   <g id="patch_46">
    <path d="M 705.681818 641.4408 
L 709.140496 641.4408 
L 709.140496 633.395886 
L 705.681818 633.395886 
z
" clip-path="url(#pb5c88d05f1)" style="fill: #1f77b4"/>
   </g>
   <g id="patch_47">
    <path d="M 709.140496 641.4408 
L 712.599174 641.4408 
L 712.599174 633.624291 
L 709.140496 633.624291 
z
" clip-path="url(#pb5c88d05f1)" style="fill: #1f77b4"/>
   </g>
   <g id="patch_48">
    <path d="M 712.599174 641.4408 
L 716.057851 641.4408 
L 716.057851 634.055721 
L 712.599174 634.055721 
z
" clip-path="url(#pb5c88d05f1)" style="fill: #1f77b4"/>
   </g>
   <g id="patch_49">
    <path d="M 716.057851 641.4408 
L 719.516529 641.4408 
L 719.516529 634.842448 
L 716.057851 634.842448 
z
" clip-path="url(#pb5c88d05f1)" style="fill: #1f77b4"/>
   </g>
   <g id="patch_50">
    <path d="M 719.516529 641.4408 
L 722.975207 641.4408 
L 722.975207 635.020096 
L 719.516529 635.020096 
z
" clip-path="url(#pb5c88d05f1)" style="fill: #1f77b4"/>
   </g>
   <g id="patch_51">
    <path d="M 722.975207 641.4408 
L 726.433884 641.4408 
L 726.433884 635.578418 
L 722.975207 635.578418 
z
" clip-path="url(#pb5c88d05f1)" style="fill: #1f77b4"/>
   </g>
   <g id="patch_52">
    <path d="M 726.433884 641.4408 
L 729.892562 641.4408 
L 729.892562 635.629175 
L 726.433884 635.629175 
z
" clip-path="url(#pb5c88d05f1)" style="fill: #1f77b4"/>
   </g>
   <g id="patch_53">
    <path d="M 729.892562 641.4408 
L 733.35124 641.4408 
L 733.35124 636.162118 
L 729.892562 636.162118 
z
" clip-path="url(#pb5c88d05f1)" style="fill: #1f77b4"/>
   </g>
   <g id="patch_54">
    <path d="M 733.35124 641.4408 
L 736.809917 641.4408 
L 736.809917 636.365145 
L 733.35124 636.365145 
z
" clip-path="url(#pb5c88d05f1)" style="fill: #1f77b4"/>
   </g>
   <g id="patch_55">
    <path d="M 736.809917 641.4408 
L 740.268595 641.4408 
L 740.268595 636.593549 
L 736.809917 636.593549 
z
" clip-path="url(#pb5c88d05f1)" style="fill: #1f77b4"/>
   </g>
   <g id="patch_56">
    <path d="M 740.268595 641.4408 
L 743.727273 641.4408 
L 743.727273 637.431032 
L 740.268595 637.431032 
z
" clip-path="url(#pb5c88d05f1)" style="fill: #1f77b4"/>
   </g>
   <g id="patch_57">
    <path d="M 743.727273 641.4408 
L 747.18595 641.4408 
L 747.18595 636.669684 
L 743.727273 636.669684 
z
" clip-path="url(#pb5c88d05f1)" style="fill: #1f77b4"/>
   </g>
   <g id="patch_58">
    <path d="M 747.18595 641.4408 
L 750.644628 641.4408 
L 750.644628 637.557924 
L 747.18595 637.557924 
z
" clip-path="url(#pb5c88d05f1)" style="fill: #1f77b4"/>
   </g>
   <g id="patch_59">
    <path d="M 750.644628 641.4408 
L 754.103306 641.4408 
L 754.103306 637.557924 
L 750.644628 637.557924 
z
" clip-path="url(#pb5c88d05f1)" style="fill: #1f77b4"/>
   </g>
   <g id="patch_60">
    <path d="M 754.103306 641.4408 
L 757.561983 641.4408 
L 757.561983 637.786328 
L 754.103306 637.786328 
z
" clip-path="url(#pb5c88d05f1)" style="fill: #1f77b4"/>
   </g>
   <g id="patch_61">
    <path d="M 757.561983 641.4408 
L 761.020661 641.4408 
L 761.020661 638.319272 
L 757.561983 638.319272 
z
" clip-path="url(#pb5c88d05f1)" style="fill: #1f77b4"/>
   </g>
   <g id="patch_62">
    <path d="M 761.020661 641.4408 
L 764.479339 641.4408 
L 764.479339 638.547676 
L 761.020661 638.547676 
z
" clip-path="url(#pb5c88d05f1)" style="fill: #1f77b4"/>
   </g>
   <g id="patch_63">
    <path d="M 764.479339 641.4408 
L 767.938017 641.4408 
L 767.938017 638.319272 
L 764.479339 638.319272 
z
" clip-path="url(#pb5c88d05f1)" style="fill: #1f77b4"/>
   </g>
   <g id="patch_64">
    <path d="M 767.938017 641.4408 
L 771.396694 641.4408 
L 771.396694 638.116246 
L 767.938017 638.116246 
z
" clip-path="url(#pb5c88d05f1)" style="fill: #1f77b4"/>
   </g>
   <g id="patch_65">
    <path d="M 771.396694 641.4408 
L 774.855372 641.4408 
L 774.855372 638.471542 
L 771.396694 638.471542 
z
" clip-path="url(#pb5c88d05f1)" style="fill: #1f77b4"/>
   </g>
   <g id="patch_66">
    <path d="M 774.855372 641.4408 
L 778.31405 641.4408 
L 778.31405 638.725324 
L 774.855372 638.725324 
z
" clip-path="url(#pb5c88d05f1)" style="fill: #1f77b4"/>
   </g>
   <g id="patch_67">
    <path d="M 778.31405 641.4408 
L 781.772727 641.4408 
L 781.772727 641.4408 
L 778.31405 641.4408 
z
" clip-path="url(#pb5c88d05f1)" style="fill: #1f77b4"/>
   </g>
   <g id="patch_68">
    <path d="M 781.772727 641.4408 
L 785.231405 641.4408 
L 785.231405 638.623811 
L 781.772727 638.623811 
z
" clip-path="url(#pb5c88d05f1)" style="fill: #1f77b4"/>
   </g>
   <g id="patch_69">
    <path d="M 785.231405 641.4408 
L 788.690083 641.4408 
L 788.690083 639.131377 
L 785.231405 639.131377 
z
" clip-path="url(#pb5c88d05f1)" style="fill: #1f77b4"/>
   </g>
   <g id="patch_70">
    <path d="M 788.690083 641.4408 
L 792.14876 641.4408 
L 792.14876 638.979107 
L 788.690083 638.979107 
z
" clip-path="url(#pb5c88d05f1)" style="fill: #1f77b4"/>
   </g>
   <g id="patch_71">
    <path d="M 792.14876 641.4408 
L 795.607438 641.4408 
L 795.607438 638.471542 
L 792.14876 638.471542 
z
" clip-path="url(#pb5c88d05f1)" style="fill: #1f77b4"/>
   </g>
   <g id="patch_72">
    <path d="M 795.607438 641.4408 
L 799.066116 641.4408 
L 799.066116 638.928351 
L 795.607438 638.928351 
z
" clip-path="url(#pb5c88d05f1)" style="fill: #1f77b4"/>
   </g>
   <g id="patch_73">
    <path d="M 799.066116 641.4408 
L 802.524793 641.4408 
L 802.524793 639.004485 
L 799.066116 639.004485 
z
" clip-path="url(#pb5c88d05f1)" style="fill: #1f77b4"/>
   </g>
   <g id="patch_74">
    <path d="M 802.524793 641.4408 
L 805.983471 641.4408 
L 805.983471 639.537429 
L 802.524793 639.537429 
z
" clip-path="url(#pb5c88d05f1)" style="fill: #1f77b4"/>
   </g>
   <g id="patch_75">
    <path d="M 805.983471 641.4408 
L 809.442149 641.4408 
L 809.442149 639.588186 
L 805.983471 639.588186 
z
" clip-path="url(#pb5c88d05f1)" style="fill: #1f77b4"/>
   </g>
   <g id="patch_76">
    <path d="M 809.442149 641.4408 
L 812.900826 641.4408 
L 812.900826 639.359781 
L 809.442149 639.359781 
z
" clip-path="url(#pb5c88d05f1)" style="fill: #1f77b4"/>
   </g>
   <g id="patch_77">
    <path d="M 812.900826 641.4408 
L 816.359504 641.4408 
L 816.359504 639.562807 
L 812.900826 639.562807 
z
" clip-path="url(#pb5c88d05f1)" style="fill: #1f77b4"/>
   </g>
   <g id="patch_78">
    <path d="M 816.359504 641.4408 
L 819.818182 641.4408 
L 819.818182 639.791212 
L 816.359504 639.791212 
z
" clip-path="url(#pb5c88d05f1)" style="fill: #1f77b4"/>
   </g>
   <g id="patch_79">
    <path d="M 819.818182 641.4408 
L 823.27686 641.4408 
L 823.27686 639.740455 
L 819.818182 639.740455 
z
" clip-path="url(#pb5c88d05f1)" style="fill: #1f77b4"/>
   </g>
   <g id="patch_80">
    <path d="M 823.27686 641.4408 
L 826.735537 641.4408 
L 826.735537 639.689699 
L 823.27686 639.689699 
z
" clip-path="url(#pb5c88d05f1)" style="fill: #1f77b4"/>
   </g>
   <g id="patch_81">
    <path d="M 826.735537 641.4408 
L 830.194215 641.4408 
L 830.194215 640.019616 
L 826.735537 640.019616 
z
" clip-path="url(#pb5c88d05f1)" style="fill: #1f77b4"/>
   </g>
   <g id="patch_82">
    <path d="M 830.194215 641.4408 
L 833.652893 641.4408 
L 833.652893 639.562807 
L 830.194215 639.562807 
z
" clip-path="url(#pb5c88d05f1)" style="fill: #1f77b4"/>
   </g>
   <g id="patch_83">
    <path d="M 833.652893 641.4408 
L 837.11157 641.4408 
L 837.11157 639.740455 
L 833.652893 639.740455 
z
" clip-path="url(#pb5c88d05f1)" style="fill: #1f77b4"/>
   </g>
   <g id="patch_84">
    <path d="M 837.11157 641.4408 
L 840.570248 641.4408 
L 840.570248 640.248021 
L 837.11157 640.248021 
z
" clip-path="url(#pb5c88d05f1)" style="fill: #1f77b4"/>
   </g>
   <g id="patch_85">
    <path d="M 840.570248 641.4408 
L 844.028926 641.4408 
L 844.028926 640.044995 
L 840.570248 640.044995 
z
" clip-path="url(#pb5c88d05f1)" style="fill: #1f77b4"/>
   </g>
   <g id="patch_86">
    <path d="M 844.028926 641.4408 
L 847.487603 641.4408 
L 847.487603 639.918103 
L 844.028926 639.918103 
z
" clip-path="url(#pb5c88d05f1)" style="fill: #1f77b4"/>
   </g>
   <g id="patch_87">
    <path d="M 847.487603 641.4408 
L 850.946281 641.4408 
L 850.946281 639.867347 
L 847.487603 639.867347 
z
" clip-path="url(#pb5c88d05f1)" style="fill: #1f77b4"/>
   </g>
   <g id="patch_88">
    <path d="M 850.946281 641.4408 
L 854.404959 641.4408 
L 854.404959 639.841969 
L 850.946281 639.841969 
z
" clip-path="url(#pb5c88d05f1)" style="fill: #1f77b4"/>
   </g>
   <g id="patch_89">
    <path d="M 854.404959 641.4408 
L 857.863636 641.4408 
L 857.863636 640.425669 
L 854.404959 640.425669 
z
" clip-path="url(#pb5c88d05f1)" style="fill: #1f77b4"/>
   </g>
   <g id="patch_90">
    <path d="M 857.863636 641.4408 
L 861.322314 641.4408 
L 861.322314 640.501804 
L 857.863636 640.501804 
z
" clip-path="url(#pb5c88d05f1)" style="fill: #1f77b4"/>
   </g>
   <g id="patch_91">
    <path d="M 861.322314 641.4408 
L 864.780992 641.4408 
L 864.780992 640.044995 
L 861.322314 640.044995 
z
" clip-path="url(#pb5c88d05f1)" style="fill: #1f77b4"/>
   </g>
   <g id="patch_92">
    <path d="M 864.780992 641.4408 
L 868.239669 641.4408 
L 868.239669 639.96886 
L 864.780992 639.96886 
z
" clip-path="url(#pb5c88d05f1)" style="fill: #1f77b4"/>
   </g>
   <g id="patch_93">
    <path d="M 868.239669 641.4408 
L 871.698347 641.4408 
L 871.698347 640.451047 
L 868.239669 640.451047 
z
" clip-path="url(#pb5c88d05f1)" style="fill: #1f77b4"/>
   </g>
   <g id="patch_94">
    <path d="M 871.698347 641.4408 
L 875.157025 641.4408 
L 875.157025 640.451047 
L 871.698347 640.451047 
z
" clip-path="url(#pb5c88d05f1)" style="fill: #1f77b4"/>
   </g>
   <g id="patch_95">
    <path d="M 875.157025 641.4408 
L 878.615702 641.4408 
L 878.615702 640.476425 
L 875.157025 640.476425 
z
" clip-path="url(#pb5c88d05f1)" style="fill: #1f77b4"/>
   </g>
   <g id="patch_96">
    <path d="M 878.615702 641.4408 
L 882.07438 641.4408 
L 882.07438 640.374912 
L 878.615702 640.374912 
z
" clip-path="url(#pb5c88d05f1)" style="fill: #1f77b4"/>
   </g>
   <g id="patch_97">
    <path d="M 882.07438 641.4408 
L 885.533058 641.4408 
L 885.533058 640.451047 
L 882.07438 640.451047 
z
" clip-path="url(#pb5c88d05f1)" style="fill: #1f77b4"/>
   </g>
   <g id="patch_98">
    <path d="M 885.533058 641.4408 
L 888.991736 641.4408 
L 888.991736 640.628695 
L 885.533058 640.628695 
z
" clip-path="url(#pb5c88d05f1)" style="fill: #1f77b4"/>
   </g>
   <g id="patch_99">
    <path d="M 888.991736 641.4408 
L 892.450413 641.4408 
L 892.450413 640.577939 
L 888.991736 640.577939 
z
" clip-path="url(#pb5c88d05f1)" style="fill: #1f77b4"/>
   </g>
   <g id="patch_100">
    <path d="M 892.450413 641.4408 
L 895.909091 641.4408 
L 895.909091 640.451047 
L 892.450413 640.451047 
z
" clip-path="url(#pb5c88d05f1)" style="fill: #1f77b4"/>
   </g>
   <g id="patch_101">
    <path d="M 895.909091 641.4408 
L 899.367769 641.4408 
L 899.367769 640.679452 
L 895.909091 640.679452 
z
" clip-path="url(#pb5c88d05f1)" style="fill: #1f77b4"/>
   </g>
   <g id="patch_102">
    <path d="M 899.367769 641.4408 
L 902.826446 641.4408 
L 902.826446 640.628695 
L 899.367769 640.628695 
z
" clip-path="url(#pb5c88d05f1)" style="fill: #1f77b4"/>
   </g>
   <g id="patch_103">
    <path d="M 902.826446 641.4408 
L 906.285124 641.4408 
L 906.285124 640.603317 
L 902.826446 640.603317 
z
" clip-path="url(#pb5c88d05f1)" style="fill: #1f77b4"/>
   </g>
   <g id="patch_104">
    <path d="M 906.285124 641.4408 
L 909.743802 641.4408 
L 909.743802 640.755587 
L 906.285124 640.755587 
z
" clip-path="url(#pb5c88d05f1)" style="fill: #1f77b4"/>
   </g>
   <g id="patch_105">
    <path d="M 909.743802 641.4408 
L 913.202479 641.4408 
L 913.202479 640.400291 
L 909.743802 640.400291 
z
" clip-path="url(#pb5c88d05f1)" style="fill: #1f77b4"/>
   </g>
   <g id="patch_106">
    <path d="M 913.202479 641.4408 
L 916.661157 641.4408 
L 916.661157 640.451047 
L 913.202479 640.451047 
z
" clip-path="url(#pb5c88d05f1)" style="fill: #1f77b4"/>
   </g>
   <g id="patch_107">
    <path d="M 916.661157 641.4408 
L 920.119835 641.4408 
L 920.119835 640.603317 
L 916.661157 640.603317 
z
" clip-path="url(#pb5c88d05f1)" style="fill: #1f77b4"/>
   </g>
   <g id="patch_108">
    <path d="M 920.119835 641.4408 
L 923.578512 641.4408 
L 923.578512 640.70483 
L 920.119835 640.70483 
z
" clip-path="url(#pb5c88d05f1)" style="fill: #1f77b4"/>
   </g>
   <g id="patch_109">
    <path d="M 923.578512 641.4408 
L 927.03719 641.4408 
L 927.03719 640.882478 
L 923.578512 640.882478 
z
" clip-path="url(#pb5c88d05f1)" style="fill: #1f77b4"/>
   </g>
   <g id="patch_110">
    <path d="M 927.03719 641.4408 
L 930.495868 641.4408 
L 930.495868 640.755587 
L 927.03719 640.755587 
z
" clip-path="url(#pb5c88d05f1)" style="fill: #1f77b4"/>
   </g>
   <g id="patch_111">
    <path d="M 930.495868 641.4408 
L 933.954545 641.4408 
L 933.954545 640.882478 
L 930.495868 640.882478 
z
" clip-path="url(#pb5c88d05f1)" style="fill: #1f77b4"/>
   </g>
   <g id="patch_112">
    <path d="M 933.954545 641.4408 
L 937.413223 641.4408 
L 937.413223 640.654073 
L 933.954545 640.654073 
z
" clip-path="url(#pb5c88d05f1)" style="fill: #1f77b4"/>
   </g>
   <g id="patch_113">
    <path d="M 937.413223 641.4408 
L 940.871901 641.4408 
L 940.871901 640.527182 
L 937.413223 640.527182 
z
" clip-path="url(#pb5c88d05f1)" style="fill: #1f77b4"/>
   </g>
   <g id="patch_114">
    <path d="M 940.871901 641.4408 
L 944.330579 641.4408 
L 944.330579 640.907856 
L 940.871901 640.907856 
z
" clip-path="url(#pb5c88d05f1)" style="fill: #1f77b4"/>
   </g>
   <g id="patch_115">
    <path d="M 944.330579 641.4408 
L 947.789256 641.4408 
L 947.789256 640.983991 
L 944.330579 640.983991 
z
" clip-path="url(#pb5c88d05f1)" style="fill: #1f77b4"/>
   </g>
   <g id="patch_116">
    <path d="M 947.789256 641.4408 
L 951.247934 641.4408 
L 951.247934 640.983991 
L 947.789256 640.983991 
z
" clip-path="url(#pb5c88d05f1)" style="fill: #1f77b4"/>
   </g>
   <g id="patch_117">
    <path d="M 951.247934 641.4408 
L 954.706612 641.4408 
L 954.706612 640.907856 
L 951.247934 640.907856 
z
" clip-path="url(#pb5c88d05f1)" style="fill: #1f77b4"/>
   </g>
   <g id="matplotlib.axis_3">
    <g id="xtick_9">
     <g id="line2d_16">
      <g>
       <use xlink:href="#m260c8f4899" x="605.30958" y="641.4408" style="stroke: #000000; stroke-width: 0.8"/>
      </g>
     </g>
     <g id="text_17">
      <!-- 0 -->
      <g transform="translate(602.12833 656.039238)scale(0.1 -0.1)">
       <use xlink:href="#DejaVuSans-30"/>
      </g>
     </g>
    </g>
    <g id="xtick_10">
     <g id="line2d_17">
      <g>
       <use xlink:href="#m260c8f4899" x="675.894839" y="641.4408" style="stroke: #000000; stroke-width: 0.8"/>
      </g>
     </g>
     <g id="text_18">
      <!-- 20 -->
      <g transform="translate(669.532339 656.039238)scale(0.1 -0.1)">
       <use xlink:href="#DejaVuSans-32"/>
       <use xlink:href="#DejaVuSans-30" x="63.623047"/>
      </g>
     </g>
    </g>
    <g id="xtick_11">
     <g id="line2d_18">
      <g>
       <use xlink:href="#m260c8f4899" x="746.480098" y="641.4408" style="stroke: #000000; stroke-width: 0.8"/>
      </g>
     </g>
     <g id="text_19">
      <!-- 40 -->
      <g transform="translate(740.117598 656.039238)scale(0.1 -0.1)">
       <defs>
        <path id="DejaVuSans-34" d="M 2419 4116 
L 825 1625 
L 2419 1625 
L 2419 4116 
z
M 2253 4666 
L 3047 4666 
L 3047 1625 
L 3713 1625 
L 3713 1100 
L 3047 1100 
L 3047 0 
L 2419 0 
L 2419 1100 
L 313 1100 
L 313 1709 
L 2253 4666 
z
" transform="scale(0.015625)"/>
       </defs>
       <use xlink:href="#DejaVuSans-34"/>
       <use xlink:href="#DejaVuSans-30" x="63.623047"/>
      </g>
     </g>
    </g>
    <g id="xtick_12">
     <g id="line2d_19">
      <g>
       <use xlink:href="#m260c8f4899" x="817.065357" y="641.4408" style="stroke: #000000; stroke-width: 0.8"/>
      </g>
     </g>
     <g id="text_20">
      <!-- 60 -->
      <g transform="translate(810.702857 656.039238)scale(0.1 -0.1)">
       <defs>
        <path id="DejaVuSans-36" d="M 2113 2584 
Q 1688 2584 1439 2293 
Q 1191 2003 1191 1497 
Q 1191 994 1439 701 
Q 1688 409 2113 409 
Q 2538 409 2786 701 
Q 3034 994 3034 1497 
Q 3034 2003 2786 2293 
Q 2538 2584 2113 2584 
z
M 3366 4563 
L 3366 3988 
Q 3128 4100 2886 4159 
Q 2644 4219 2406 4219 
Q 1781 4219 1451 3797 
Q 1122 3375 1075 2522 
Q 1259 2794 1537 2939 
Q 1816 3084 2150 3084 
Q 2853 3084 3261 2657 
Q 3669 2231 3669 1497 
Q 3669 778 3244 343 
Q 2819 -91 2113 -91 
Q 1303 -91 875 529 
Q 447 1150 447 2328 
Q 447 3434 972 4092 
Q 1497 4750 2381 4750 
Q 2619 4750 2861 4703 
Q 3103 4656 3366 4563 
z
" transform="scale(0.015625)"/>
       </defs>
       <use xlink:href="#DejaVuSans-36"/>
       <use xlink:href="#DejaVuSans-30" x="63.623047"/>
      </g>
     </g>
    </g>
    <g id="xtick_13">
     <g id="line2d_20">
      <g>
       <use xlink:href="#m260c8f4899" x="887.650616" y="641.4408" style="stroke: #000000; stroke-width: 0.8"/>
      </g>
     </g>
     <g id="text_21">
      <!-- 80 -->
      <g transform="translate(881.288116 656.039238)scale(0.1 -0.1)">
       <defs>
        <path id="DejaVuSans-38" d="M 2034 2216 
Q 1584 2216 1326 1975 
Q 1069 1734 1069 1313 
Q 1069 891 1326 650 
Q 1584 409 2034 409 
Q 2484 409 2743 651 
Q 3003 894 3003 1313 
Q 3003 1734 2745 1975 
Q 2488 2216 2034 2216 
z
M 1403 2484 
Q 997 2584 770 2862 
Q 544 3141 544 3541 
Q 544 4100 942 4425 
Q 1341 4750 2034 4750 
Q 2731 4750 3128 4425 
Q 3525 4100 3525 3541 
Q 3525 3141 3298 2862 
Q 3072 2584 2669 2484 
Q 3125 2378 3379 2068 
Q 3634 1759 3634 1313 
Q 3634 634 3220 271 
Q 2806 -91 2034 -91 
Q 1263 -91 848 271 
Q 434 634 434 1313 
Q 434 1759 690 2068 
Q 947 2378 1403 2484 
z
M 1172 3481 
Q 1172 3119 1398 2916 
Q 1625 2713 2034 2713 
Q 2441 2713 2670 2916 
Q 2900 3119 2900 3481 
Q 2900 3844 2670 4047 
Q 2441 4250 2034 4250 
Q 1625 4250 1398 4047 
Q 1172 3844 1172 3481 
z
" transform="scale(0.015625)"/>
       </defs>
       <use xlink:href="#DejaVuSans-38"/>
       <use xlink:href="#DejaVuSans-30" x="63.623047"/>
      </g>
     </g>
    </g>
    <g id="xtick_14">
     <g id="line2d_21">
      <g>
       <use xlink:href="#m260c8f4899" x="958.235875" y="641.4408" style="stroke: #000000; stroke-width: 0.8"/>
      </g>
     </g>
     <g id="text_22">
      <!-- 100 -->
      <g transform="translate(948.692125 656.039238)scale(0.1 -0.1)">
       <use xlink:href="#DejaVuSans-31"/>
       <use xlink:href="#DejaVuSans-30" x="63.623047"/>
       <use xlink:href="#DejaVuSans-30" x="127.246094"/>
      </g>
     </g>
    </g>
   </g>
   <g id="matplotlib.axis_4">
    <g id="ytick_8">
     <g id="line2d_22">
      <g>
       <use xlink:href="#md215288ecd" x="591.545455" y="641.4408" style="stroke: #000000; stroke-width: 0.8"/>
      </g>
     </g>
     <g id="text_23">
      <!-- 0 -->
      <g transform="translate(578.182955 645.240019)scale(0.1 -0.1)">
       <use xlink:href="#DejaVuSans-30"/>
      </g>
     </g>
    </g>
    <g id="ytick_9">
     <g id="line2d_23">
      <g>
       <use xlink:href="#md215288ecd" x="591.545455" y="577.995107" style="stroke: #000000; stroke-width: 0.8"/>
      </g>
     </g>
     <g id="text_24">
      <!-- 2500 -->
      <g transform="translate(559.095455 581.794326)scale(0.1 -0.1)">
       <use xlink:href="#DejaVuSans-32"/>
       <use xlink:href="#DejaVuSans-35" x="63.623047"/>
       <use xlink:href="#DejaVuSans-30" x="127.246094"/>
       <use xlink:href="#DejaVuSans-30" x="190.869141"/>
      </g>
     </g>
    </g>
    <g id="ytick_10">
     <g id="line2d_24">
      <g>
       <use xlink:href="#md215288ecd" x="591.545455" y="514.549414" style="stroke: #000000; stroke-width: 0.8"/>
      </g>
     </g>
     <g id="text_25">
      <!-- 5000 -->
      <g transform="translate(559.095455 518.348633)scale(0.1 -0.1)">
       <use xlink:href="#DejaVuSans-35"/>
       <use xlink:href="#DejaVuSans-30" x="63.623047"/>
       <use xlink:href="#DejaVuSans-30" x="127.246094"/>
       <use xlink:href="#DejaVuSans-30" x="190.869141"/>
      </g>
     </g>
    </g>
    <g id="ytick_11">
     <g id="line2d_25">
      <g>
       <use xlink:href="#md215288ecd" x="591.545455" y="451.103721" style="stroke: #000000; stroke-width: 0.8"/>
      </g>
     </g>
     <g id="text_26">
      <!-- 7500 -->
      <g transform="translate(559.095455 454.90294)scale(0.1 -0.1)">
       <defs>
        <path id="DejaVuSans-37" d="M 525 4666 
L 3525 4666 
L 3525 4397 
L 1831 0 
L 1172 0 
L 2766 4134 
L 525 4134 
L 525 4666 
z
" transform="scale(0.015625)"/>
       </defs>
       <use xlink:href="#DejaVuSans-37"/>
       <use xlink:href="#DejaVuSans-35" x="63.623047"/>
       <use xlink:href="#DejaVuSans-30" x="127.246094"/>
       <use xlink:href="#DejaVuSans-30" x="190.869141"/>
      </g>
     </g>
    </g>
    <g id="ytick_12">
     <g id="line2d_26">
      <g>
       <use xlink:href="#md215288ecd" x="591.545455" y="387.658028" style="stroke: #000000; stroke-width: 0.8"/>
      </g>
     </g>
     <g id="text_27">
      <!-- 10000 -->
      <g transform="translate(552.732955 391.457247)scale(0.1 -0.1)">
       <use xlink:href="#DejaVuSans-31"/>
       <use xlink:href="#DejaVuSans-30" x="63.623047"/>
       <use xlink:href="#DejaVuSans-30" x="127.246094"/>
       <use xlink:href="#DejaVuSans-30" x="190.869141"/>
       <use xlink:href="#DejaVuSans-30" x="254.492188"/>
      </g>
     </g>
    </g>
    <g id="ytick_13">
     <g id="line2d_27">
      <g>
       <use xlink:href="#md215288ecd" x="591.545455" y="324.212336" style="stroke: #000000; stroke-width: 0.8"/>
      </g>
     </g>
     <g id="text_28">
      <!-- 12500 -->
      <g transform="translate(552.732955 328.011554)scale(0.1 -0.1)">
       <use xlink:href="#DejaVuSans-31"/>
       <use xlink:href="#DejaVuSans-32" x="63.623047"/>
       <use xlink:href="#DejaVuSans-35" x="127.246094"/>
       <use xlink:href="#DejaVuSans-30" x="190.869141"/>
       <use xlink:href="#DejaVuSans-30" x="254.492188"/>
      </g>
     </g>
    </g>
    <g id="ytick_14">
     <g id="line2d_28">
      <g>
       <use xlink:href="#md215288ecd" x="591.545455" y="260.766643" style="stroke: #000000; stroke-width: 0.8"/>
      </g>
     </g>
     <g id="text_29">
      <!-- 15000 -->
      <g transform="translate(552.732955 264.565861)scale(0.1 -0.1)">
       <use xlink:href="#DejaVuSans-31"/>
       <use xlink:href="#DejaVuSans-35" x="63.623047"/>
       <use xlink:href="#DejaVuSans-30" x="127.246094"/>
       <use xlink:href="#DejaVuSans-30" x="190.869141"/>
       <use xlink:href="#DejaVuSans-30" x="254.492188"/>
      </g>
     </g>
    </g>
    <g id="ytick_15">
     <g id="line2d_29">
      <g>
       <use xlink:href="#md215288ecd" x="591.545455" y="197.32095" style="stroke: #000000; stroke-width: 0.8"/>
      </g>
     </g>
     <g id="text_30">
      <!-- 17500 -->
      <g transform="translate(552.732955 201.120169)scale(0.1 -0.1)">
       <use xlink:href="#DejaVuSans-31"/>
       <use xlink:href="#DejaVuSans-37" x="63.623047"/>
       <use xlink:href="#DejaVuSans-35" x="127.246094"/>
       <use xlink:href="#DejaVuSans-30" x="190.869141"/>
       <use xlink:href="#DejaVuSans-30" x="254.492188"/>
      </g>
     </g>
    </g>
    <g id="ytick_16">
     <g id="line2d_30">
      <g>
       <use xlink:href="#md215288ecd" x="591.545455" y="133.875257" style="stroke: #000000; stroke-width: 0.8"/>
      </g>
     </g>
     <g id="text_31">
      <!-- 20000 -->
      <g transform="translate(552.732955 137.674476)scale(0.1 -0.1)">
       <use xlink:href="#DejaVuSans-32"/>
       <use xlink:href="#DejaVuSans-30" x="63.623047"/>
       <use xlink:href="#DejaVuSans-30" x="127.246094"/>
       <use xlink:href="#DejaVuSans-30" x="190.869141"/>
       <use xlink:href="#DejaVuSans-30" x="254.492188"/>
      </g>
     </g>
    </g>
   </g>
   <g id="patch_118">
    <path d="M 591.545455 641.4408 
L 591.545455 86.4864 
" style="fill: none; stroke: #000000; stroke-width: 0.8; stroke-linejoin: miter; stroke-linecap: square"/>
   </g>
   <g id="patch_119">
    <path d="M 972 641.4408 
L 972 86.4864 
" style="fill: none; stroke: #000000; stroke-width: 0.8; stroke-linejoin: miter; stroke-linecap: square"/>
   </g>
   <g id="patch_120">
    <path d="M 591.545455 641.4408 
L 972 641.4408 
" style="fill: none; stroke: #000000; stroke-width: 0.8; stroke-linejoin: miter; stroke-linecap: square"/>
   </g>
   <g id="patch_121">
    <path d="M 591.545455 86.4864 
L 972 86.4864 
" style="fill: none; stroke: #000000; stroke-width: 0.8; stroke-linejoin: miter; stroke-linecap: square"/>
   </g>
   <g id="text_32">
    <!-- Power law distribution used for workplaces -->
    <g transform="translate(653.19179 80.4864)scale(0.12 -0.12)">
     <defs>
      <path id="DejaVuSans-77" d="M 269 3500 
L 844 3500 
L 1563 769 
L 2278 3500 
L 2956 3500 
L 3675 769 
L 4391 3500 
L 4966 3500 
L 4050 0 
L 3372 0 
L 2619 2869 
L 1863 0 
L 1184 0 
L 269 3500 
z
" transform="scale(0.015625)"/>
      <path id="DejaVuSans-61" d="M 2194 1759 
Q 1497 1759 1228 1600 
Q 959 1441 959 1056 
Q 959 750 1161 570 
Q 1363 391 1709 391 
Q 2188 391 2477 730 
Q 2766 1069 2766 1631 
L 2766 1759 
L 2194 1759 
z
M 3341 1997 
L 3341 0 
L 2766 0 
L 2766 531 
Q 2569 213 2275 61 
Q 1981 -91 1556 -91 
Q 1019 -91 701 211 
Q 384 513 384 1019 
Q 384 1609 779 1909 
Q 1175 2209 1959 2209 
L 2766 2209 
L 2766 2266 
Q 2766 2663 2505 2880 
Q 2244 3097 1772 3097 
Q 1472 3097 1187 3025 
Q 903 2953 641 2809 
L 641 3341 
Q 956 3463 1253 3523 
Q 1550 3584 1831 3584 
Q 2591 3584 2966 3190 
Q 3341 2797 3341 1997 
z
" transform="scale(0.015625)"/>
      <path id="DejaVuSans-6b" d="M 581 4863 
L 1159 4863 
L 1159 1991 
L 2875 3500 
L 3609 3500 
L 1753 1863 
L 3688 0 
L 2938 0 
L 1159 1709 
L 1159 0 
L 581 0 
L 581 4863 
z
" transform="scale(0.015625)"/>
      <path id="DejaVuSans-70" d="M 1159 525 
L 1159 -1331 
L 581 -1331 
L 581 3500 
L 1159 3500 
L 1159 2969 
Q 1341 3281 1617 3432 
Q 1894 3584 2278 3584 
Q 2916 3584 3314 3078 
Q 3713 2572 3713 1747 
Q 3713 922 3314 415 
Q 2916 -91 2278 -91 
Q 1894 -91 1617 61 
Q 1341 213 1159 525 
z
M 3116 1747 
Q 3116 2381 2855 2742 
Q 2594 3103 2138 3103 
Q 1681 3103 1420 2742 
Q 1159 2381 1159 1747 
Q 1159 1113 1420 752 
Q 1681 391 2138 391 
Q 2594 391 2855 752 
Q 3116 1113 3116 1747 
z
" transform="scale(0.015625)"/>
     </defs>
     <use xlink:href="#DejaVuSans-50"/>
     <use xlink:href="#DejaVuSans-6f" x="56.677734"/>
     <use xlink:href="#DejaVuSans-77" x="117.859375"/>
     <use xlink:href="#DejaVuSans-65" x="199.646484"/>
     <use xlink:href="#DejaVuSans-72" x="261.169922"/>
     <use xlink:href="#DejaVuSans-20" x="302.283203"/>
     <use xlink:href="#DejaVuSans-6c" x="334.070312"/>
     <use xlink:href="#DejaVuSans-61" x="361.853516"/>
     <use xlink:href="#DejaVuSans-77" x="423.132812"/>
     <use xlink:href="#DejaVuSans-20" x="504.919922"/>
     <use xlink:href="#DejaVuSans-64" x="536.707031"/>
     <use xlink:href="#DejaVuSans-69" x="600.183594"/>
     <use xlink:href="#DejaVuSans-73" x="627.966797"/>
     <use xlink:href="#DejaVuSans-74" x="680.066406"/>
     <use xlink:href="#DejaVuSans-72" x="719.275391"/>
     <use xlink:href="#DejaVuSans-69" x="760.388672"/>
     <use xlink:href="#DejaVuSans-62" x="788.171875"/>
     <use xlink:href="#DejaVuSans-75" x="851.648438"/>
     <use xlink:href="#DejaVuSans-74" x="915.027344"/>
     <use xlink:href="#DejaVuSans-69" x="954.236328"/>
     <use xlink:href="#DejaVuSans-6f" x="982.019531"/>
     <use xlink:href="#DejaVuSans-6e" x="1043.201172"/>
     <use xlink:href="#DejaVuSans-20" x="1106.580078"/>
     <use xlink:href="#DejaVuSans-75" x="1138.367188"/>
     <use xlink:href="#DejaVuSans-73" x="1201.746094"/>
     <use xlink:href="#DejaVuSans-65" x="1253.845703"/>
     <use xlink:href="#DejaVuSans-64" x="1315.369141"/>
     <use xlink:href="#DejaVuSans-20" x="1378.845703"/>
     <use xlink:href="#DejaVuSans-66" x="1410.632812"/>
     <use xlink:href="#DejaVuSans-6f" x="1445.837891"/>
     <use xlink:href="#DejaVuSans-72" x="1507.019531"/>
     <use xlink:href="#DejaVuSans-20" x="1548.132812"/>
     <use xlink:href="#DejaVuSans-77" x="1579.919922"/>
     <use xlink:href="#DejaVuSans-6f" x="1661.707031"/>
     <use xlink:href="#DejaVuSans-72" x="1722.888672"/>
     <use xlink:href="#DejaVuSans-6b" x="1764.001953"/>
     <use xlink:href="#DejaVuSans-70" x="1821.912109"/>
     <use xlink:href="#DejaVuSans-6c" x="1885.388672"/>
     <use xlink:href="#DejaVuSans-61" x="1913.171875"/>
     <use xlink:href="#DejaVuSans-63" x="1974.451172"/>
     <use xlink:href="#DejaVuSans-65" x="2029.431641"/>
     <use xlink:href="#DejaVuSans-73" x="2090.955078"/>
    </g>
   </g>
  </g>
 </g>
 <defs>
  <clipPath id="paf445e18ac">
   <rect x="135" y="86.4864" width="380.454545" height="554.9544"/>
  </clipPath>
  <clipPath id="pb5c88d05f1">
   <rect x="591.545455" y="86.4864" width="380.454545" height="554.9544"/>
  </clipPath>
 </defs>
</svg>
