<?xml version="1.0" encoding="utf-8" standalone="no"?>
<!DOCTYPE svg PUBLIC "-//W3C//DTD SVG 1.1//EN"
  "http://www.w3.org/Graphics/SVG/1.1/DTD/svg11.dtd">
<svg xmlns:xlink="http://www.w3.org/1999/xlink" width="931.68pt" height="476.64pt" viewBox="0 0 931.68 476.64" xmlns="http://www.w3.org/2000/svg" version="1.1">
 <metadata>
  <rdf:RDF xmlns:dc="http://purl.org/dc/elements/1.1/" xmlns:cc="http://creativecommons.org/ns#" xmlns:rdf="http://www.w3.org/1999/02/22-rdf-syntax-ns#">
   <cc:Work>
    <dc:type rdf:resource="http://purl.org/dc/dcmitype/StillImage"/>
    <dc:date>2022-03-11T15:06:32.027552</dc:date>
    <dc:format>image/svg+xml</dc:format>
    <dc:creator>
     <cc:Agent>
      <dc:title>Matplotlib v3.5.0, https://matplotlib.org/</dc:title>
     </cc:Agent>
    </dc:creator>
   </cc:Work>
  </rdf:RDF>
 </metadata>
 <defs>
  <style type="text/css">*{stroke-linejoin: round; stroke-linecap: butt}</style>
 </defs>
 <g id="figure_1">
  <g id="patch_1">
   <path d="M 0 476.64 
L 931.68 476.64 
L 931.68 0 
L 0 0 
z
" style="fill: #ffffff"/>
  </g>
  <g id="axes_1">
   <g id="patch_2">
    <path d="M 116.46 424.2096 
L 444.665455 424.2096 
L 444.665455 57.1968 
L 116.46 57.1968 
z
" style="fill: #ffffff"/>
   </g>
   <g id="patch_3">
    <path d="M 131.37843 424.2096 
L 161.215289 424.2096 
L 161.215289 421.027159 
L 131.37843 421.027159 
z
" clip-path="url(#p4dfa732abe)" style="fill: #1f77b4"/>
   </g>
   <g id="patch_4">
    <path d="M 161.215289 424.2096 
L 191.052149 424.2096 
L 191.052149 345.342034 
L 161.215289 345.342034 
z
" clip-path="url(#p4dfa732abe)" style="fill: #1f77b4"/>
   </g>
   <g id="patch_5">
    <path d="M 191.052149 424.2096 
L 220.889008 424.2096 
L 220.889008 97.483155 
L 191.052149 97.483155 
z
" clip-path="url(#p4dfa732abe)" style="fill: #1f77b4"/>
   </g>
   <g id="patch_6">
    <path d="M 220.889008 424.2096 
L 250.725868 424.2096 
L 250.725868 113.271528 
L 220.889008 113.271528 
z
" clip-path="url(#p4dfa732abe)" style="fill: #1f77b4"/>
   </g>
   <g id="patch_7">
    <path d="M 250.725868 424.2096 
L 280.562727 424.2096 
L 280.562727 74.6736 
L 250.725868 74.6736 
z
" clip-path="url(#p4dfa732abe)" style="fill: #1f77b4"/>
   </g>
   <g id="patch_8">
    <path d="M 280.562727 424.2096 
L 310.399587 424.2096 
L 310.399587 289.048745 
L 280.562727 289.048745 
z
" clip-path="url(#p4dfa732abe)" style="fill: #1f77b4"/>
   </g>
   <g id="patch_9">
    <path d="M 310.399587 424.2096 
L 340.236446 424.2096 
L 340.236446 399.158715 
L 310.399587 399.158715 
z
" clip-path="url(#p4dfa732abe)" style="fill: #1f77b4"/>
   </g>
   <g id="patch_10">
    <path d="M 340.236446 424.2096 
L 370.073306 424.2096 
L 370.073306 416.13586 
L 340.236446 416.13586 
z
" clip-path="url(#p4dfa732abe)" style="fill: #1f77b4"/>
   </g>
   <g id="patch_11">
    <path d="M 370.073306 424.2096 
L 399.910165 424.2096 
L 399.910165 423.466618 
L 370.073306 423.466618 
z
" clip-path="url(#p4dfa732abe)" style="fill: #1f77b4"/>
   </g>
   <g id="patch_12">
    <path d="M 399.910165 424.2096 
L 429.747025 424.2096 
L 429.747025 424.184834 
L 399.910165 424.184834 
z
" clip-path="url(#p4dfa732abe)" style="fill: #1f77b4"/>
   </g>
   <g id="matplotlib.axis_1">
    <g id="xtick_1">
     <g id="line2d_1">
      <defs>
       <path id="m7a81be4eb6" d="M 0 0 
L 0 3.5 
" style="stroke: #000000; stroke-width: 0.8"/>
      </defs>
      <g>
       <use xlink:href="#m7a81be4eb6" x="131.37843" y="424.2096" style="stroke: #000000; stroke-width: 0.8"/>
      </g>
     </g>
     <g id="text_1">
      <!-- 0 -->
      <g transform="translate(128.19718 438.808038)scale(0.1 -0.1)">
       <defs>
        <path id="DejaVuSans-30" d="M 2034 4250 
Q 1547 4250 1301 3770 
Q 1056 3291 1056 2328 
Q 1056 1369 1301 889 
Q 1547 409 2034 409 
Q 2525 409 2770 889 
Q 3016 1369 3016 2328 
Q 3016 3291 2770 3770 
Q 2525 4250 2034 4250 
z
M 2034 4750 
Q 2819 4750 3233 4129 
Q 3647 3509 3647 2328 
Q 3647 1150 3233 529 
Q 2819 -91 2034 -91 
Q 1250 -91 836 529 
Q 422 1150 422 2328 
Q 422 3509 836 4129 
Q 1250 4750 2034 4750 
z
" transform="scale(0.015625)"/>
       </defs>
       <use xlink:href="#DejaVuSans-30"/>
      </g>
     </g>
    </g>
    <g id="xtick_2">
     <g id="line2d_2">
      <g>
       <use xlink:href="#m7a81be4eb6" x="186.631873" y="424.2096" style="stroke: #000000; stroke-width: 0.8"/>
      </g>
     </g>
     <g id="text_2">
      <!-- 5 -->
      <g transform="translate(183.450623 438.808038)scale(0.1 -0.1)">
       <defs>
        <path id="DejaVuSans-35" d="M 691 4666 
L 3169 4666 
L 3169 4134 
L 1269 4134 
L 1269 2991 
Q 1406 3038 1543 3061 
Q 1681 3084 1819 3084 
Q 2600 3084 3056 2656 
Q 3513 2228 3513 1497 
Q 3513 744 3044 326 
Q 2575 -91 1722 -91 
Q 1428 -91 1123 -41 
Q 819 9 494 109 
L 494 744 
Q 775 591 1075 516 
Q 1375 441 1709 441 
Q 2250 441 2565 725 
Q 2881 1009 2881 1497 
Q 2881 1984 2565 2268 
Q 2250 2553 1709 2553 
Q 1456 2553 1204 2497 
Q 953 2441 691 2322 
L 691 4666 
z
" transform="scale(0.015625)"/>
       </defs>
       <use xlink:href="#DejaVuSans-35"/>
      </g>
     </g>
    </g>
    <g id="xtick_3">
     <g id="line2d_3">
      <g>
       <use xlink:href="#m7a81be4eb6" x="241.885317" y="424.2096" style="stroke: #000000; stroke-width: 0.8"/>
      </g>
     </g>
     <g id="text_3">
      <!-- 10 -->
      <g transform="translate(235.522817 438.808038)scale(0.1 -0.1)">
       <defs>
        <path id="DejaVuSans-31" d="M 794 531 
L 1825 531 
L 1825 4091 
L 703 3866 
L 703 4441 
L 1819 4666 
L 2450 4666 
L 2450 531 
L 3481 531 
L 3481 0 
L 794 0 
L 794 531 
z
" transform="scale(0.015625)"/>
       </defs>
       <use xlink:href="#DejaVuSans-31"/>
       <use xlink:href="#DejaVuSans-30" x="63.623047"/>
      </g>
     </g>
    </g>
    <g id="xtick_4">
     <g id="line2d_4">
      <g>
       <use xlink:href="#m7a81be4eb6" x="297.13876" y="424.2096" style="stroke: #000000; stroke-width: 0.8"/>
      </g>
     </g>
     <g id="text_4">
      <!-- 15 -->
      <g transform="translate(290.77626 438.808038)scale(0.1 -0.1)">
       <use xlink:href="#DejaVuSans-31"/>
       <use xlink:href="#DejaVuSans-35" x="63.623047"/>
      </g>
     </g>
    </g>
    <g id="xtick_5">
     <g id="line2d_5">
      <g>
       <use xlink:href="#m7a81be4eb6" x="352.392204" y="424.2096" style="stroke: #000000; stroke-width: 0.8"/>
      </g>
     </g>
     <g id="text_5">
      <!-- 20 -->
      <g transform="translate(346.029704 438.808038)scale(0.1 -0.1)">
       <defs>
        <path id="DejaVuSans-32" d="M 1228 531 
L 3431 531 
L 3431 0 
L 469 0 
L 469 531 
Q 828 903 1448 1529 
Q 2069 2156 2228 2338 
Q 2531 2678 2651 2914 
Q 2772 3150 2772 3378 
Q 2772 3750 2511 3984 
Q 2250 4219 1831 4219 
Q 1534 4219 1204 4116 
Q 875 4013 500 3803 
L 500 4441 
Q 881 4594 1212 4672 
Q 1544 4750 1819 4750 
Q 2544 4750 2975 4387 
Q 3406 4025 3406 3419 
Q 3406 3131 3298 2873 
Q 3191 2616 2906 2266 
Q 2828 2175 2409 1742 
Q 1991 1309 1228 531 
z
" transform="scale(0.015625)"/>
       </defs>
       <use xlink:href="#DejaVuSans-32"/>
       <use xlink:href="#DejaVuSans-30" x="63.623047"/>
      </g>
     </g>
    </g>
    <g id="xtick_6">
     <g id="line2d_6">
      <g>
       <use xlink:href="#m7a81be4eb6" x="407.645647" y="424.2096" style="stroke: #000000; stroke-width: 0.8"/>
      </g>
     </g>
     <g id="text_6">
      <!-- 25 -->
      <g transform="translate(401.283147 438.808038)scale(0.1 -0.1)">
       <use xlink:href="#DejaVuSans-32"/>
       <use xlink:href="#DejaVuSans-35" x="63.623047"/>
      </g>
     </g>
    </g>
   </g>
   <g id="matplotlib.axis_2">
    <g id="ytick_1">
     <g id="line2d_7">
      <defs>
       <path id="m158075e1cf" d="M 0 0 
L -3.5 0 
" style="stroke: #000000; stroke-width: 0.8"/>
      </defs>
      <g>
       <use xlink:href="#m158075e1cf" x="116.46" y="424.2096" style="stroke: #000000; stroke-width: 0.8"/>
      </g>
     </g>
     <g id="text_7">
      <!-- 0 -->
      <g transform="translate(103.0975 428.008819)scale(0.1 -0.1)">
       <use xlink:href="#DejaVuSans-30"/>
      </g>
     </g>
    </g>
    <g id="ytick_2">
     <g id="line2d_8">
      <g>
       <use xlink:href="#m158075e1cf" x="116.46" y="362.294412" style="stroke: #000000; stroke-width: 0.8"/>
      </g>
     </g>
     <g id="text_8">
      <!-- 5000 -->
      <g transform="translate(84.01 366.093631)scale(0.1 -0.1)">
       <use xlink:href="#DejaVuSans-35"/>
       <use xlink:href="#DejaVuSans-30" x="63.623047"/>
       <use xlink:href="#DejaVuSans-30" x="127.246094"/>
       <use xlink:href="#DejaVuSans-30" x="190.869141"/>
      </g>
     </g>
    </g>
    <g id="ytick_3">
     <g id="line2d_9">
      <g>
       <use xlink:href="#m158075e1cf" x="116.46" y="300.379225" style="stroke: #000000; stroke-width: 0.8"/>
      </g>
     </g>
     <g id="text_9">
      <!-- 10000 -->
      <g transform="translate(77.6475 304.178444)scale(0.1 -0.1)">
       <use xlink:href="#DejaVuSans-31"/>
       <use xlink:href="#DejaVuSans-30" x="63.623047"/>
       <use xlink:href="#DejaVuSans-30" x="127.246094"/>
       <use xlink:href="#DejaVuSans-30" x="190.869141"/>
       <use xlink:href="#DejaVuSans-30" x="254.492188"/>
      </g>
     </g>
    </g>
    <g id="ytick_4">
     <g id="line2d_10">
      <g>
       <use xlink:href="#m158075e1cf" x="116.46" y="238.464037" style="stroke: #000000; stroke-width: 0.8"/>
      </g>
     </g>
     <g id="text_10">
      <!-- 15000 -->
      <g transform="translate(77.6475 242.263256)scale(0.1 -0.1)">
       <use xlink:href="#DejaVuSans-31"/>
       <use xlink:href="#DejaVuSans-35" x="63.623047"/>
       <use xlink:href="#DejaVuSans-30" x="127.246094"/>
       <use xlink:href="#DejaVuSans-30" x="190.869141"/>
       <use xlink:href="#DejaVuSans-30" x="254.492188"/>
      </g>
     </g>
    </g>
    <g id="ytick_5">
     <g id="line2d_11">
      <g>
       <use xlink:href="#m158075e1cf" x="116.46" y="176.54885" style="stroke: #000000; stroke-width: 0.8"/>
      </g>
     </g>
     <g id="text_11">
      <!-- 20000 -->
      <g transform="translate(77.6475 180.348068)scale(0.1 -0.1)">
       <use xlink:href="#DejaVuSans-32"/>
       <use xlink:href="#DejaVuSans-30" x="63.623047"/>
       <use xlink:href="#DejaVuSans-30" x="127.246094"/>
       <use xlink:href="#DejaVuSans-30" x="190.869141"/>
       <use xlink:href="#DejaVuSans-30" x="254.492188"/>
      </g>
     </g>
    </g>
    <g id="ytick_6">
     <g id="line2d_12">
      <g>
       <use xlink:href="#m158075e1cf" x="116.46" y="114.633662" style="stroke: #000000; stroke-width: 0.8"/>
      </g>
     </g>
     <g id="text_12">
      <!-- 25000 -->
      <g transform="translate(77.6475 118.432881)scale(0.1 -0.1)">
       <use xlink:href="#DejaVuSans-32"/>
       <use xlink:href="#DejaVuSans-35" x="63.623047"/>
       <use xlink:href="#DejaVuSans-30" x="127.246094"/>
       <use xlink:href="#DejaVuSans-30" x="190.869141"/>
       <use xlink:href="#DejaVuSans-30" x="254.492188"/>
      </g>
     </g>
    </g>
   </g>
   <g id="patch_13">
    <path d="M 116.46 424.2096 
L 116.46 57.1968 
" style="fill: none; stroke: #000000; stroke-width: 0.8; stroke-linejoin: miter; stroke-linecap: square"/>
   </g>
   <g id="patch_14">
    <path d="M 444.665455 424.2096 
L 444.665455 57.1968 
" style="fill: none; stroke: #000000; stroke-width: 0.8; stroke-linejoin: miter; stroke-linecap: square"/>
   </g>
   <g id="patch_15">
    <path d="M 116.46 424.2096 
L 444.665455 424.2096 
" style="fill: none; stroke: #000000; stroke-width: 0.8; stroke-linejoin: miter; stroke-linecap: square"/>
   </g>
   <g id="patch_16">
    <path d="M 116.46 57.1968 
L 444.665455 57.1968 
" style="fill: none; stroke: #000000; stroke-width: 0.8; stroke-linejoin: miter; stroke-linecap: square"/>
   </g>
   <g id="text_13">
    <!-- Poisson distribution used for schools -->
    <g transform="translate(171.238977 51.1968)scale(0.12 -0.12)">
     <defs>
      <path id="DejaVuSans-50" d="M 1259 4147 
L 1259 2394 
L 2053 2394 
Q 2494 2394 2734 2622 
Q 2975 2850 2975 3272 
Q 2975 3691 2734 3919 
Q 2494 4147 2053 4147 
L 1259 4147 
z
M 628 4666 
L 2053 4666 
Q 2838 4666 3239 4311 
Q 3641 3956 3641 3272 
Q 3641 2581 3239 2228 
Q 2838 1875 2053 1875 
L 1259 1875 
L 1259 0 
L 628 0 
L 628 4666 
z
" transform="scale(0.015625)"/>
      <path id="DejaVuSans-6f" d="M 1959 3097 
Q 1497 3097 1228 2736 
Q 959 2375 959 1747 
Q 959 1119 1226 758 
Q 1494 397 1959 397 
Q 2419 397 2687 759 
Q 2956 1122 2956 1747 
Q 2956 2369 2687 2733 
Q 2419 3097 1959 3097 
z
M 1959 3584 
Q 2709 3584 3137 3096 
Q 3566 2609 3566 1747 
Q 3566 888 3137 398 
Q 2709 -91 1959 -91 
Q 1206 -91 779 398 
Q 353 888 353 1747 
Q 353 2609 779 3096 
Q 1206 3584 1959 3584 
z
" transform="scale(0.015625)"/>
      <path id="DejaVuSans-69" d="M 603 3500 
L 1178 3500 
L 1178 0 
L 603 0 
L 603 3500 
z
M 603 4863 
L 1178 4863 
L 1178 4134 
L 603 4134 
L 603 4863 
z
" transform="scale(0.015625)"/>
      <path id="DejaVuSans-73" d="M 2834 3397 
L 2834 2853 
Q 2591 2978 2328 3040 
Q 2066 3103 1784 3103 
Q 1356 3103 1142 2972 
Q 928 2841 928 2578 
Q 928 2378 1081 2264 
Q 1234 2150 1697 2047 
L 1894 2003 
Q 2506 1872 2764 1633 
Q 3022 1394 3022 966 
Q 3022 478 2636 193 
Q 2250 -91 1575 -91 
Q 1294 -91 989 -36 
Q 684 19 347 128 
L 347 722 
Q 666 556 975 473 
Q 1284 391 1588 391 
Q 1994 391 2212 530 
Q 2431 669 2431 922 
Q 2431 1156 2273 1281 
Q 2116 1406 1581 1522 
L 1381 1569 
Q 847 1681 609 1914 
Q 372 2147 372 2553 
Q 372 3047 722 3315 
Q 1072 3584 1716 3584 
Q 2034 3584 2315 3537 
Q 2597 3491 2834 3397 
z
" transform="scale(0.015625)"/>
      <path id="DejaVuSans-6e" d="M 3513 2113 
L 3513 0 
L 2938 0 
L 2938 2094 
Q 2938 2591 2744 2837 
Q 2550 3084 2163 3084 
Q 1697 3084 1428 2787 
Q 1159 2491 1159 1978 
L 1159 0 
L 581 0 
L 581 3500 
L 1159 3500 
L 1159 2956 
Q 1366 3272 1645 3428 
Q 1925 3584 2291 3584 
Q 2894 3584 3203 3211 
Q 3513 2838 3513 2113 
z
" transform="scale(0.015625)"/>
      <path id="DejaVuSans-20" transform="scale(0.015625)"/>
      <path id="DejaVuSans-64" d="M 2906 2969 
L 2906 4863 
L 3481 4863 
L 3481 0 
L 2906 0 
L 2906 525 
Q 2725 213 2448 61 
Q 2172 -91 1784 -91 
Q 1150 -91 751 415 
Q 353 922 353 1747 
Q 353 2572 751 3078 
Q 1150 3584 1784 3584 
Q 2172 3584 2448 3432 
Q 2725 3281 2906 2969 
z
M 947 1747 
Q 947 1113 1208 752 
Q 1469 391 1925 391 
Q 2381 391 2643 752 
Q 2906 1113 2906 1747 
Q 2906 2381 2643 2742 
Q 2381 3103 1925 3103 
Q 1469 3103 1208 2742 
Q 947 2381 947 1747 
z
" transform="scale(0.015625)"/>
      <path id="DejaVuSans-74" d="M 1172 4494 
L 1172 3500 
L 2356 3500 
L 2356 3053 
L 1172 3053 
L 1172 1153 
Q 1172 725 1289 603 
Q 1406 481 1766 481 
L 2356 481 
L 2356 0 
L 1766 0 
Q 1100 0 847 248 
Q 594 497 594 1153 
L 594 3053 
L 172 3053 
L 172 3500 
L 594 3500 
L 594 4494 
L 1172 4494 
z
" transform="scale(0.015625)"/>
      <path id="DejaVuSans-72" d="M 2631 2963 
Q 2534 3019 2420 3045 
Q 2306 3072 2169 3072 
Q 1681 3072 1420 2755 
Q 1159 2438 1159 1844 
L 1159 0 
L 581 0 
L 581 3500 
L 1159 3500 
L 1159 2956 
Q 1341 3275 1631 3429 
Q 1922 3584 2338 3584 
Q 2397 3584 2469 3576 
Q 2541 3569 2628 3553 
L 2631 2963 
z
" transform="scale(0.015625)"/>
      <path id="DejaVuSans-62" d="M 3116 1747 
Q 3116 2381 2855 2742 
Q 2594 3103 2138 3103 
Q 1681 3103 1420 2742 
Q 1159 2381 1159 1747 
Q 1159 1113 1420 752 
Q 1681 391 2138 391 
Q 2594 391 2855 752 
Q 3116 1113 3116 1747 
z
M 1159 2969 
Q 1341 3281 1617 3432 
Q 1894 3584 2278 3584 
Q 2916 3584 3314 3078 
Q 3713 2572 3713 1747 
Q 3713 922 3314 415 
Q 2916 -91 2278 -91 
Q 1894 -91 1617 61 
Q 1341 213 1159 525 
L 1159 0 
L 581 0 
L 581 4863 
L 1159 4863 
L 1159 2969 
z
" transform="scale(0.015625)"/>
      <path id="DejaVuSans-75" d="M 544 1381 
L 544 3500 
L 1119 3500 
L 1119 1403 
Q 1119 906 1312 657 
Q 1506 409 1894 409 
Q 2359 409 2629 706 
Q 2900 1003 2900 1516 
L 2900 3500 
L 3475 3500 
L 3475 0 
L 2900 0 
L 2900 538 
Q 2691 219 2414 64 
Q 2138 -91 1772 -91 
Q 1169 -91 856 284 
Q 544 659 544 1381 
z
M 1991 3584 
L 1991 3584 
z
" transform="scale(0.015625)"/>
      <path id="DejaVuSans-65" d="M 3597 1894 
L 3597 1613 
L 953 1613 
Q 991 1019 1311 708 
Q 1631 397 2203 397 
Q 2534 397 2845 478 
Q 3156 559 3463 722 
L 3463 178 
Q 3153 47 2828 -22 
Q 2503 -91 2169 -91 
Q 1331 -91 842 396 
Q 353 884 353 1716 
Q 353 2575 817 3079 
Q 1281 3584 2069 3584 
Q 2775 3584 3186 3129 
Q 3597 2675 3597 1894 
z
M 3022 2063 
Q 3016 2534 2758 2815 
Q 2500 3097 2075 3097 
Q 1594 3097 1305 2825 
Q 1016 2553 972 2059 
L 3022 2063 
z
" transform="scale(0.015625)"/>
      <path id="DejaVuSans-66" d="M 2375 4863 
L 2375 4384 
L 1825 4384 
Q 1516 4384 1395 4259 
Q 1275 4134 1275 3809 
L 1275 3500 
L 2222 3500 
L 2222 3053 
L 1275 3053 
L 1275 0 
L 697 0 
L 697 3053 
L 147 3053 
L 147 3500 
L 697 3500 
L 697 3744 
Q 697 4328 969 4595 
Q 1241 4863 1831 4863 
L 2375 4863 
z
" transform="scale(0.015625)"/>
      <path id="DejaVuSans-63" d="M 3122 3366 
L 3122 2828 
Q 2878 2963 2633 3030 
Q 2388 3097 2138 3097 
Q 1578 3097 1268 2742 
Q 959 2388 959 1747 
Q 959 1106 1268 751 
Q 1578 397 2138 397 
Q 2388 397 2633 464 
Q 2878 531 3122 666 
L 3122 134 
Q 2881 22 2623 -34 
Q 2366 -91 2075 -91 
Q 1284 -91 818 406 
Q 353 903 353 1747 
Q 353 2603 823 3093 
Q 1294 3584 2113 3584 
Q 2378 3584 2631 3529 
Q 2884 3475 3122 3366 
z
" transform="scale(0.015625)"/>
      <path id="DejaVuSans-68" d="M 3513 2113 
L 3513 0 
L 2938 0 
L 2938 2094 
Q 2938 2591 2744 2837 
Q 2550 3084 2163 3084 
Q 1697 3084 1428 2787 
Q 1159 2491 1159 1978 
L 1159 0 
L 581 0 
L 581 4863 
L 1159 4863 
L 1159 2956 
Q 1366 3272 1645 3428 
Q 1925 3584 2291 3584 
Q 2894 3584 3203 3211 
Q 3513 2838 3513 2113 
z
" transform="scale(0.015625)"/>
      <path id="DejaVuSans-6c" d="M 603 4863 
L 1178 4863 
L 1178 0 
L 603 0 
L 603 4863 
z
" transform="scale(0.015625)"/>
     </defs>
     <use xlink:href="#DejaVuSans-50"/>
     <use xlink:href="#DejaVuSans-6f" x="56.677734"/>
     <use xlink:href="#DejaVuSans-69" x="117.859375"/>
     <use xlink:href="#DejaVuSans-73" x="145.642578"/>
     <use xlink:href="#DejaVuSans-73" x="197.742188"/>
     <use xlink:href="#DejaVuSans-6f" x="249.841797"/>
     <use xlink:href="#DejaVuSans-6e" x="311.023438"/>
     <use xlink:href="#DejaVuSans-20" x="374.402344"/>
     <use xlink:href="#DejaVuSans-64" x="406.189453"/>
     <use xlink:href="#DejaVuSans-69" x="469.666016"/>
     <use xlink:href="#DejaVuSans-73" x="497.449219"/>
     <use xlink:href="#DejaVuSans-74" x="549.548828"/>
     <use xlink:href="#DejaVuSans-72" x="588.757812"/>
     <use xlink:href="#DejaVuSans-69" x="629.871094"/>
     <use xlink:href="#DejaVuSans-62" x="657.654297"/>
     <use xlink:href="#DejaVuSans-75" x="721.130859"/>
     <use xlink:href="#DejaVuSans-74" x="784.509766"/>
     <use xlink:href="#DejaVuSans-69" x="823.71875"/>
     <use xlink:href="#DejaVuSans-6f" x="851.501953"/>
     <use xlink:href="#DejaVuSans-6e" x="912.683594"/>
     <use xlink:href="#DejaVuSans-20" x="976.0625"/>
     <use xlink:href="#DejaVuSans-75" x="1007.849609"/>
     <use xlink:href="#DejaVuSans-73" x="1071.228516"/>
     <use xlink:href="#DejaVuSans-65" x="1123.328125"/>
     <use xlink:href="#DejaVuSans-64" x="1184.851562"/>
     <use xlink:href="#DejaVuSans-20" x="1248.328125"/>
     <use xlink:href="#DejaVuSans-66" x="1280.115234"/>
     <use xlink:href="#DejaVuSans-6f" x="1315.320312"/>
     <use xlink:href="#DejaVuSans-72" x="1376.501953"/>
     <use xlink:href="#DejaVuSans-20" x="1417.615234"/>
     <use xlink:href="#DejaVuSans-73" x="1449.402344"/>
     <use xlink:href="#DejaVuSans-63" x="1501.501953"/>
     <use xlink:href="#DejaVuSans-68" x="1556.482422"/>
     <use xlink:href="#DejaVuSans-6f" x="1619.861328"/>
     <use xlink:href="#DejaVuSans-6f" x="1681.042969"/>
     <use xlink:href="#DejaVuSans-6c" x="1742.224609"/>
     <use xlink:href="#DejaVuSans-73" x="1770.007812"/>
    </g>
   </g>
  </g>
  <g id="axes_2">
   <g id="patch_17">
    <path d="M 510.306545 424.2096 
L 838.512 424.2096 
L 838.512 57.1968 
L 510.306545 57.1968 
z
" style="fill: #ffffff"/>
   </g>
   <g id="patch_18">
    <path d="M 525.224975 424.2096 
L 528.208661 424.2096 
L 528.208661 74.6736 
L 525.224975 74.6736 
z
" clip-path="url(#p59f459653b)" style="fill: #1f77b4"/>
   </g>
   <g id="patch_19">
    <path d="M 528.208661 424.2096 
L 531.192347 424.2096 
L 531.192347 191.493426 
L 528.208661 191.493426 
z
" clip-path="url(#p59f459653b)" style="fill: #1f77b4"/>
   </g>
   <g id="patch_20">
    <path d="M 531.192347 424.2096 
L 534.176033 424.2096 
L 534.176033 256.516093 
L 531.192347 256.516093 
z
" clip-path="url(#p59f459653b)" style="fill: #1f77b4"/>
   </g>
   <g id="patch_21">
    <path d="M 534.176033 424.2096 
L 537.159719 424.2096 
L 537.159719 299.358824 
L 534.176033 299.358824 
z
" clip-path="url(#p59f459653b)" style="fill: #1f77b4"/>
   </g>
   <g id="patch_22">
    <path d="M 537.159719 424.2096 
L 540.143405 424.2096 
L 540.143405 324.935835 
L 537.159719 324.935835 
z
" clip-path="url(#p59f459653b)" style="fill: #1f77b4"/>
   </g>
   <g id="patch_23">
    <path d="M 540.143405 424.2096 
L 543.127091 424.2096 
L 543.127091 344.09798 
L 540.143405 344.09798 
z
" clip-path="url(#p59f459653b)" style="fill: #1f77b4"/>
   </g>
   <g id="patch_24">
    <path d="M 543.127091 424.2096 
L 546.110777 424.2096 
L 546.110777 362.171742 
L 543.127091 362.171742 
z
" clip-path="url(#p59f459653b)" style="fill: #1f77b4"/>
   </g>
   <g id="patch_25">
    <path d="M 546.110777 424.2096 
L 549.094463 424.2096 
L 549.094463 370.647941 
L 546.110777 370.647941 
z
" clip-path="url(#p59f459653b)" style="fill: #1f77b4"/>
   </g>
   <g id="patch_26">
    <path d="M 549.094463 424.2096 
L 552.078149 424.2096 
L 552.078149 379.734294 
L 549.094463 379.734294 
z
" clip-path="url(#p59f459653b)" style="fill: #1f77b4"/>
   </g>
   <g id="patch_27">
    <path d="M 552.078149 424.2096 
L 555.061835 424.2096 
L 555.061835 386.64388 
L 552.078149 386.64388 
z
" clip-path="url(#p59f459653b)" style="fill: #1f77b4"/>
   </g>
   <g id="patch_28">
    <path d="M 555.061835 424.2096 
L 558.045521 424.2096 
L 558.045521 391.360208 
L 555.061835 391.360208 
z
" clip-path="url(#p59f459653b)" style="fill: #1f77b4"/>
   </g>
   <g id="patch_29">
    <path d="M 558.045521 424.2096 
L 561.029207 424.2096 
L 561.029207 395.631289 
L 558.045521 395.631289 
z
" clip-path="url(#p59f459653b)" style="fill: #1f77b4"/>
   </g>
   <g id="patch_30">
    <path d="M 561.029207 424.2096 
L 564.012893 424.2096 
L 564.012893 399.506593 
L 561.029207 399.506593 
z
" clip-path="url(#p59f459653b)" style="fill: #1f77b4"/>
   </g>
   <g id="patch_31">
    <path d="M 564.012893 424.2096 
L 566.996579 424.2096 
L 566.996579 403.118048 
L 564.012893 403.118048 
z
" clip-path="url(#p59f459653b)" style="fill: #1f77b4"/>
   </g>
   <g id="patch_32">
    <path d="M 566.996579 424.2096 
L 569.980264 424.2096 
L 569.980264 405.92146 
L 566.996579 405.92146 
z
" clip-path="url(#p59f459653b)" style="fill: #1f77b4"/>
   </g>
   <g id="patch_33">
    <path d="M 569.980264 424.2096 
L 572.96395 424.2096 
L 572.96395 407.982792 
L 569.980264 407.982792 
z
" clip-path="url(#p59f459653b)" style="fill: #1f77b4"/>
   </g>
   <g id="patch_34">
    <path d="M 572.96395 424.2096 
L 575.947636 424.2096 
L 575.947636 409.219591 
L 572.96395 409.219591 
z
" clip-path="url(#p59f459653b)" style="fill: #1f77b4"/>
   </g>
   <g id="patch_35">
    <path d="M 575.947636 424.2096 
L 578.931322 424.2096 
L 578.931322 411.000582 
L 575.947636 411.000582 
z
" clip-path="url(#p59f459653b)" style="fill: #1f77b4"/>
   </g>
   <g id="patch_36">
    <path d="M 578.931322 424.2096 
L 581.915008 424.2096 
L 581.915008 412.550704 
L 578.931322 412.550704 
z
" clip-path="url(#p59f459653b)" style="fill: #1f77b4"/>
   </g>
   <g id="patch_37">
    <path d="M 581.915008 424.2096 
L 584.898694 424.2096 
L 584.898694 412.913499 
L 581.915008 412.913499 
z
" clip-path="url(#p59f459653b)" style="fill: #1f77b4"/>
   </g>
   <g id="patch_38">
    <path d="M 584.898694 424.2096 
L 587.88238 424.2096 
L 587.88238 413.721541 
L 584.898694 413.721541 
z
" clip-path="url(#p59f459653b)" style="fill: #1f77b4"/>
   </g>
   <g id="patch_39">
    <path d="M 587.88238 424.2096 
L 590.866066 424.2096 
L 590.866066 415.139738 
L 587.88238 415.139738 
z
" clip-path="url(#p59f459653b)" style="fill: #1f77b4"/>
   </g>
   <g id="patch_40">
    <path d="M 590.866066 424.2096 
L 593.849752 424.2096 
L 593.849752 415.43657 
L 590.866066 415.43657 
z
" clip-path="url(#p59f459653b)" style="fill: #1f77b4"/>
   </g>
   <g id="patch_41">
    <path d="M 593.849752 424.2096 
L 596.833438 424.2096 
L 596.833438 414.842906 
L 593.849752 414.842906 
z
" clip-path="url(#p59f459653b)" style="fill: #1f77b4"/>
   </g>
   <g id="patch_42">
    <path d="M 596.833438 424.2096 
L 599.817124 424.2096 
L 599.817124 417.102126 
L 596.833438 417.102126 
z
" clip-path="url(#p59f459653b)" style="fill: #1f77b4"/>
   </g>
   <g id="patch_43">
    <path d="M 599.817124 424.2096 
L 602.80081 424.2096 
L 602.80081 417.382467 
L 599.817124 417.382467 
z
" clip-path="url(#p59f459653b)" style="fill: #1f77b4"/>
   </g>
   <g id="patch_44">
    <path d="M 602.80081 424.2096 
L 605.784496 424.2096 
L 605.784496 418.371907 
L 602.80081 418.371907 
z
" clip-path="url(#p59f459653b)" style="fill: #1f77b4"/>
   </g>
   <g id="patch_45">
    <path d="M 605.784496 424.2096 
L 608.768182 424.2096 
L 608.768182 417.860696 
L 605.784496 417.860696 
z
" clip-path="url(#p59f459653b)" style="fill: #1f77b4"/>
   </g>
   <g id="patch_46">
    <path d="M 608.768182 424.2096 
L 611.751868 424.2096 
L 611.751868 418.223491 
L 608.768182 418.223491 
z
" clip-path="url(#p59f459653b)" style="fill: #1f77b4"/>
   </g>
   <g id="patch_47">
    <path d="M 611.751868 424.2096 
L 614.735554 424.2096 
L 614.735554 419.410818 
L 611.751868 419.410818 
z
" clip-path="url(#p59f459653b)" style="fill: #1f77b4"/>
   </g>
   <g id="patch_48">
    <path d="M 614.735554 424.2096 
L 617.71924 424.2096 
L 617.71924 419.476781 
L 614.735554 419.476781 
z
" clip-path="url(#p59f459653b)" style="fill: #1f77b4"/>
   </g>
   <g id="patch_49">
    <path d="M 617.71924 424.2096 
L 620.702926 424.2096 
L 620.702926 419.493272 
L 617.71924 419.493272 
z
" clip-path="url(#p59f459653b)" style="fill: #1f77b4"/>
   </g>
   <g id="patch_50">
    <path d="M 620.702926 424.2096 
L 623.686612 424.2096 
L 623.686612 420.004482 
L 620.702926 420.004482 
z
" clip-path="url(#p59f459653b)" style="fill: #1f77b4"/>
   </g>
   <g id="patch_51">
    <path d="M 623.686612 424.2096 
L 626.670298 424.2096 
L 626.670298 420.136407 
L 623.686612 420.136407 
z
" clip-path="url(#p59f459653b)" style="fill: #1f77b4"/>
   </g>
   <g id="patch_52">
    <path d="M 626.670298 424.2096 
L 629.653983 424.2096 
L 629.653983 420.894978 
L 626.670298 420.894978 
z
" clip-path="url(#p59f459653b)" style="fill: #1f77b4"/>
   </g>
   <g id="patch_53">
    <path d="M 629.653983 424.2096 
L 632.637669 424.2096 
L 632.637669 420.927959 
L 629.653983 420.927959 
z
" clip-path="url(#p59f459653b)" style="fill: #1f77b4"/>
   </g>
   <g id="patch_54">
    <path d="M 632.637669 424.2096 
L 635.621355 424.2096 
L 635.621355 420.746562 
L 632.637669 420.746562 
z
" clip-path="url(#p59f459653b)" style="fill: #1f77b4"/>
   </g>
   <g id="patch_55">
    <path d="M 635.621355 424.2096 
L 638.605041 424.2096 
L 638.605041 420.746562 
L 635.621355 420.746562 
z
" clip-path="url(#p59f459653b)" style="fill: #1f77b4"/>
   </g>
   <g id="patch_56">
    <path d="M 638.605041 424.2096 
L 641.588727 424.2096 
L 641.588727 420.779543 
L 638.605041 420.779543 
z
" clip-path="url(#p59f459653b)" style="fill: #1f77b4"/>
   </g>
   <g id="patch_57">
    <path d="M 641.588727 424.2096 
L 644.572413 424.2096 
L 644.572413 421.521623 
L 641.588727 421.521623 
z
" clip-path="url(#p59f459653b)" style="fill: #1f77b4"/>
   </g>
   <g id="patch_58">
    <path d="M 644.572413 424.2096 
L 647.556099 424.2096 
L 647.556099 421.257772 
L 644.572413 421.257772 
z
" clip-path="url(#p59f459653b)" style="fill: #1f77b4"/>
   </g>
   <g id="patch_59">
    <path d="M 647.556099 424.2096 
L 650.539785 424.2096 
L 650.539785 421.653548 
L 647.556099 421.653548 
z
" clip-path="url(#p59f459653b)" style="fill: #1f77b4"/>
   </g>
   <g id="patch_60">
    <path d="M 650.539785 424.2096 
L 653.523471 424.2096 
L 653.523471 421.851436 
L 650.539785 421.851436 
z
" clip-path="url(#p59f459653b)" style="fill: #1f77b4"/>
   </g>
   <g id="patch_61">
    <path d="M 653.523471 424.2096 
L 656.507157 424.2096 
L 656.507157 422.016342 
L 653.523471 422.016342 
z
" clip-path="url(#p59f459653b)" style="fill: #1f77b4"/>
   </g>
   <g id="patch_62">
    <path d="M 656.507157 424.2096 
L 659.490843 424.2096 
L 659.490843 422.098796 
L 656.507157 422.098796 
z
" clip-path="url(#p59f459653b)" style="fill: #1f77b4"/>
   </g>
   <g id="patch_63">
    <path d="M 659.490843 424.2096 
L 662.474529 424.2096 
L 662.474529 422.21423 
L 659.490843 422.21423 
z
" clip-path="url(#p59f459653b)" style="fill: #1f77b4"/>
   </g>
   <g id="patch_64">
    <path d="M 662.474529 424.2096 
L 665.458215 424.2096 
L 665.458215 422.131777 
L 662.474529 422.131777 
z
" clip-path="url(#p59f459653b)" style="fill: #1f77b4"/>
   </g>
   <g id="patch_65">
    <path d="M 665.458215 424.2096 
L 668.441901 424.2096 
L 668.441901 422.230721 
L 665.458215 422.230721 
z
" clip-path="url(#p59f459653b)" style="fill: #1f77b4"/>
   </g>
   <g id="patch_66">
    <path d="M 668.441901 424.2096 
L 671.425587 424.2096 
L 671.425587 422.412118 
L 668.441901 422.412118 
z
" clip-path="url(#p59f459653b)" style="fill: #1f77b4"/>
   </g>
   <g id="patch_67">
    <path d="M 671.425587 424.2096 
L 674.409273 424.2096 
L 674.409273 424.2096 
L 671.425587 424.2096 
z
" clip-path="url(#p59f459653b)" style="fill: #1f77b4"/>
   </g>
   <g id="patch_68">
    <path d="M 674.409273 424.2096 
L 677.392959 424.2096 
L 677.392959 422.46159 
L 674.409273 422.46159 
z
" clip-path="url(#p59f459653b)" style="fill: #1f77b4"/>
   </g>
   <g id="patch_69">
    <path d="M 677.392959 424.2096 
L 680.376645 424.2096 
L 680.376645 422.659478 
L 677.392959 422.659478 
z
" clip-path="url(#p59f459653b)" style="fill: #1f77b4"/>
   </g>
   <g id="patch_70">
    <path d="M 680.376645 424.2096 
L 683.360331 424.2096 
L 683.360331 422.741931 
L 680.376645 422.741931 
z
" clip-path="url(#p59f459653b)" style="fill: #1f77b4"/>
   </g>
   <g id="patch_71">
    <path d="M 683.360331 424.2096 
L 686.344017 424.2096 
L 686.344017 422.560534 
L 683.360331 422.560534 
z
" clip-path="url(#p59f459653b)" style="fill: #1f77b4"/>
   </g>
   <g id="patch_72">
    <path d="M 686.344017 424.2096 
L 689.327702 424.2096 
L 689.327702 422.807894 
L 686.344017 422.807894 
z
" clip-path="url(#p59f459653b)" style="fill: #1f77b4"/>
   </g>
   <g id="patch_73">
    <path d="M 689.327702 424.2096 
L 692.311388 424.2096 
L 692.311388 422.840875 
L 689.327702 422.840875 
z
" clip-path="url(#p59f459653b)" style="fill: #1f77b4"/>
   </g>
   <g id="patch_74">
    <path d="M 692.311388 424.2096 
L 695.295074 424.2096 
L 695.295074 422.791403 
L 692.311388 422.791403 
z
" clip-path="url(#p59f459653b)" style="fill: #1f77b4"/>
   </g>
   <g id="patch_75">
    <path d="M 695.295074 424.2096 
L 698.27876 424.2096 
L 698.27876 423.022273 
L 695.295074 423.022273 
z
" clip-path="url(#p59f459653b)" style="fill: #1f77b4"/>
   </g>
   <g id="patch_76">
    <path d="M 698.27876 424.2096 
L 701.262446 424.2096 
L 701.262446 422.807894 
L 698.27876 422.807894 
z
" clip-path="url(#p59f459653b)" style="fill: #1f77b4"/>
   </g>
   <g id="patch_77">
    <path d="M 701.262446 424.2096 
L 704.246132 424.2096 
L 704.246132 422.824385 
L 701.262446 422.824385 
z
" clip-path="url(#p59f459653b)" style="fill: #1f77b4"/>
   </g>
   <g id="patch_78">
    <path d="M 704.246132 424.2096 
L 707.229818 424.2096 
L 707.229818 422.692459 
L 704.246132 422.692459 
z
" clip-path="url(#p59f459653b)" style="fill: #1f77b4"/>
   </g>
   <g id="patch_79">
    <path d="M 707.229818 424.2096 
L 710.213504 424.2096 
L 710.213504 422.873857 
L 707.229818 422.873857 
z
" clip-path="url(#p59f459653b)" style="fill: #1f77b4"/>
   </g>
   <g id="patch_80">
    <path d="M 710.213504 424.2096 
L 713.19719 424.2096 
L 713.19719 423.022273 
L 710.213504 423.022273 
z
" clip-path="url(#p59f459653b)" style="fill: #1f77b4"/>
   </g>
   <g id="patch_81">
    <path d="M 713.19719 424.2096 
L 716.180876 424.2096 
L 716.180876 423.088235 
L 713.19719 423.088235 
z
" clip-path="url(#p59f459653b)" style="fill: #1f77b4"/>
   </g>
   <g id="patch_82">
    <path d="M 716.180876 424.2096 
L 719.164562 424.2096 
L 719.164562 422.923329 
L 716.180876 422.923329 
z
" clip-path="url(#p59f459653b)" style="fill: #1f77b4"/>
   </g>
   <g id="patch_83">
    <path d="M 719.164562 424.2096 
L 722.148248 424.2096 
L 722.148248 423.269632 
L 719.164562 423.269632 
z
" clip-path="url(#p59f459653b)" style="fill: #1f77b4"/>
   </g>
   <g id="patch_84">
    <path d="M 722.148248 424.2096 
L 725.131934 424.2096 
L 725.131934 422.939819 
L 722.148248 422.939819 
z
" clip-path="url(#p59f459653b)" style="fill: #1f77b4"/>
   </g>
   <g id="patch_85">
    <path d="M 725.131934 424.2096 
L 728.11562 424.2096 
L 728.11562 423.22016 
L 725.131934 423.22016 
z
" clip-path="url(#p59f459653b)" style="fill: #1f77b4"/>
   </g>
   <g id="patch_86">
    <path d="M 728.11562 424.2096 
L 731.099306 424.2096 
L 731.099306 423.137707 
L 728.11562 423.137707 
z
" clip-path="url(#p59f459653b)" style="fill: #1f77b4"/>
   </g>
   <g id="patch_87">
    <path d="M 731.099306 424.2096 
L 734.082992 424.2096 
L 734.082992 423.20367 
L 731.099306 423.20367 
z
" clip-path="url(#p59f459653b)" style="fill: #1f77b4"/>
   </g>
   <g id="patch_88">
    <path d="M 734.082992 424.2096 
L 737.066678 424.2096 
L 737.066678 423.418048 
L 734.082992 423.418048 
z
" clip-path="url(#p59f459653b)" style="fill: #1f77b4"/>
   </g>
   <g id="patch_89">
    <path d="M 737.066678 424.2096 
L 740.050364 424.2096 
L 740.050364 423.549974 
L 737.066678 423.549974 
z
" clip-path="url(#p59f459653b)" style="fill: #1f77b4"/>
   </g>
   <g id="patch_90">
    <path d="M 740.050364 424.2096 
L 743.03405 424.2096 
L 743.03405 423.615936 
L 740.050364 423.615936 
z
" clip-path="url(#p59f459653b)" style="fill: #1f77b4"/>
   </g>
   <g id="patch_91">
    <path d="M 743.03405 424.2096 
L 746.017736 424.2096 
L 746.017736 423.615936 
L 743.03405 423.615936 
z
" clip-path="url(#p59f459653b)" style="fill: #1f77b4"/>
   </g>
   <g id="patch_92">
    <path d="M 746.017736 424.2096 
L 749.001421 424.2096 
L 749.001421 423.566464 
L 746.017736 423.566464 
z
" clip-path="url(#p59f459653b)" style="fill: #1f77b4"/>
   </g>
   <g id="patch_93">
    <path d="M 749.001421 424.2096 
L 751.985107 424.2096 
L 751.985107 423.615936 
L 749.001421 423.615936 
z
" clip-path="url(#p59f459653b)" style="fill: #1f77b4"/>
   </g>
   <g id="patch_94">
    <path d="M 751.985107 424.2096 
L 754.968793 424.2096 
L 754.968793 423.45103 
L 751.985107 423.45103 
z
" clip-path="url(#p59f459653b)" style="fill: #1f77b4"/>
   </g>
   <g id="patch_95">
    <path d="M 754.968793 424.2096 
L 757.952479 424.2096 
L 757.952479 423.516992 
L 754.968793 423.516992 
z
" clip-path="url(#p59f459653b)" style="fill: #1f77b4"/>
   </g>
   <g id="patch_96">
    <path d="M 757.952479 424.2096 
L 760.936165 424.2096 
L 760.936165 423.71488 
L 757.952479 423.71488 
z
" clip-path="url(#p59f459653b)" style="fill: #1f77b4"/>
   </g>
   <g id="patch_97">
    <path d="M 760.936165 424.2096 
L 763.919851 424.2096 
L 763.919851 423.69839 
L 760.936165 423.69839 
z
" clip-path="url(#p59f459653b)" style="fill: #1f77b4"/>
   </g>
   <g id="patch_98">
    <path d="M 763.919851 424.2096 
L 766.903537 424.2096 
L 766.903537 423.500502 
L 763.919851 423.500502 
z
" clip-path="url(#p59f459653b)" style="fill: #1f77b4"/>
   </g>
   <g id="patch_99">
    <path d="M 766.903537 424.2096 
L 769.887223 424.2096 
L 769.887223 423.615936 
L 766.903537 423.615936 
z
" clip-path="url(#p59f459653b)" style="fill: #1f77b4"/>
   </g>
   <g id="patch_100">
    <path d="M 769.887223 424.2096 
L 772.870909 424.2096 
L 772.870909 423.71488 
L 769.887223 423.71488 
z
" clip-path="url(#p59f459653b)" style="fill: #1f77b4"/>
   </g>
   <g id="patch_101">
    <path d="M 772.870909 424.2096 
L 775.854595 424.2096 
L 775.854595 423.549974 
L 772.870909 423.549974 
z
" clip-path="url(#p59f459653b)" style="fill: #1f77b4"/>
   </g>
   <g id="patch_102">
    <path d="M 775.854595 424.2096 
L 778.838281 424.2096 
L 778.838281 423.846806 
L 775.854595 423.846806 
z
" clip-path="url(#p59f459653b)" style="fill: #1f77b4"/>
   </g>
   <g id="patch_103">
    <path d="M 778.838281 424.2096 
L 781.821967 424.2096 
L 781.821967 423.71488 
L 778.838281 423.71488 
z
" clip-path="url(#p59f459653b)" style="fill: #1f77b4"/>
   </g>
   <g id="patch_104">
    <path d="M 781.821967 424.2096 
L 784.805653 424.2096 
L 784.805653 423.71488 
L 781.821967 423.71488 
z
" clip-path="url(#p59f459653b)" style="fill: #1f77b4"/>
   </g>
   <g id="patch_105">
    <path d="M 784.805653 424.2096 
L 787.789339 424.2096 
L 787.789339 423.582955 
L 784.805653 423.582955 
z
" clip-path="url(#p59f459653b)" style="fill: #1f77b4"/>
   </g>
   <g id="patch_106">
    <path d="M 787.789339 424.2096 
L 790.773025 424.2096 
L 790.773025 423.648918 
L 787.789339 423.648918 
z
" clip-path="url(#p59f459653b)" style="fill: #1f77b4"/>
   </g>
   <g id="patch_107">
    <path d="M 790.773025 424.2096 
L 793.756711 424.2096 
L 793.756711 423.69839 
L 790.773025 423.69839 
z
" clip-path="url(#p59f459653b)" style="fill: #1f77b4"/>
   </g>
   <g id="patch_108">
    <path d="M 793.756711 424.2096 
L 796.740397 424.2096 
L 796.740397 423.764352 
L 793.756711 423.764352 
z
" clip-path="url(#p59f459653b)" style="fill: #1f77b4"/>
   </g>
   <g id="patch_109">
    <path d="M 796.740397 424.2096 
L 799.724083 424.2096 
L 799.724083 423.747862 
L 796.740397 423.747862 
z
" clip-path="url(#p59f459653b)" style="fill: #1f77b4"/>
   </g>
   <g id="patch_110">
    <path d="M 799.724083 424.2096 
L 802.707769 424.2096 
L 802.707769 423.731371 
L 799.724083 423.731371 
z
" clip-path="url(#p59f459653b)" style="fill: #1f77b4"/>
   </g>
   <g id="patch_111">
    <path d="M 802.707769 424.2096 
L 805.691455 424.2096 
L 805.691455 423.846806 
L 802.707769 423.846806 
z
" clip-path="url(#p59f459653b)" style="fill: #1f77b4"/>
   </g>
   <g id="patch_112">
    <path d="M 805.691455 424.2096 
L 808.67514 424.2096 
L 808.67514 423.797334 
L 805.691455 423.797334 
z
" clip-path="url(#p59f459653b)" style="fill: #1f77b4"/>
   </g>
   <g id="patch_113">
    <path d="M 808.67514 424.2096 
L 811.658826 424.2096 
L 811.658826 423.813824 
L 808.67514 423.813824 
z
" clip-path="url(#p59f459653b)" style="fill: #1f77b4"/>
   </g>
   <g id="patch_114">
    <path d="M 811.658826 424.2096 
L 814.642512 424.2096 
L 814.642512 423.896277 
L 811.658826 423.896277 
z
" clip-path="url(#p59f459653b)" style="fill: #1f77b4"/>
   </g>
   <g id="patch_115">
    <path d="M 814.642512 424.2096 
L 817.626198 424.2096 
L 817.626198 423.764352 
L 814.642512 423.764352 
z
" clip-path="url(#p59f459653b)" style="fill: #1f77b4"/>
   </g>
   <g id="patch_116">
    <path d="M 817.626198 424.2096 
L 820.609884 424.2096 
L 820.609884 423.846806 
L 817.626198 423.846806 
z
" clip-path="url(#p59f459653b)" style="fill: #1f77b4"/>
   </g>
   <g id="patch_117">
    <path d="M 820.609884 424.2096 
L 823.59357 424.2096 
L 823.59357 423.830315 
L 820.609884 423.830315 
z
" clip-path="url(#p59f459653b)" style="fill: #1f77b4"/>
   </g>
   <g id="matplotlib.axis_3">
    <g id="xtick_7">
     <g id="line2d_13">
      <g>
       <use xlink:href="#m7a81be4eb6" x="522.180398" y="424.2096" style="stroke: #000000; stroke-width: 0.8"/>
      </g>
     </g>
     <g id="text_14">
      <!-- 0 -->
      <g transform="translate(518.999148 438.808038)scale(0.1 -0.1)">
       <use xlink:href="#DejaVuSans-30"/>
      </g>
     </g>
    </g>
    <g id="xtick_8">
     <g id="line2d_14">
      <g>
       <use xlink:href="#m7a81be4eb6" x="583.071948" y="424.2096" style="stroke: #000000; stroke-width: 0.8"/>
      </g>
     </g>
     <g id="text_15">
      <!-- 20 -->
      <g transform="translate(576.709448 438.808038)scale(0.1 -0.1)">
       <use xlink:href="#DejaVuSans-32"/>
       <use xlink:href="#DejaVuSans-30" x="63.623047"/>
      </g>
     </g>
    </g>
    <g id="xtick_9">
     <g id="line2d_15">
      <g>
       <use xlink:href="#m7a81be4eb6" x="643.963498" y="424.2096" style="stroke: #000000; stroke-width: 0.8"/>
      </g>
     </g>
     <g id="text_16">
      <!-- 40 -->
      <g transform="translate(637.600998 438.808038)scale(0.1 -0.1)">
       <defs>
        <path id="DejaVuSans-34" d="M 2419 4116 
L 825 1625 
L 2419 1625 
L 2419 4116 
z
M 2253 4666 
L 3047 4666 
L 3047 1625 
L 3713 1625 
L 3713 1100 
L 3047 1100 
L 3047 0 
L 2419 0 
L 2419 1100 
L 313 1100 
L 313 1709 
L 2253 4666 
z
" transform="scale(0.015625)"/>
       </defs>
       <use xlink:href="#DejaVuSans-34"/>
       <use xlink:href="#DejaVuSans-30" x="63.623047"/>
      </g>
     </g>
    </g>
    <g id="xtick_10">
     <g id="line2d_16">
      <g>
       <use xlink:href="#m7a81be4eb6" x="704.855048" y="424.2096" style="stroke: #000000; stroke-width: 0.8"/>
      </g>
     </g>
     <g id="text_17">
      <!-- 60 -->
      <g transform="translate(698.492548 438.808038)scale(0.1 -0.1)">
       <defs>
        <path id="DejaVuSans-36" d="M 2113 2584 
Q 1688 2584 1439 2293 
Q 1191 2003 1191 1497 
Q 1191 994 1439 701 
Q 1688 409 2113 409 
Q 2538 409 2786 701 
Q 3034 994 3034 1497 
Q 3034 2003 2786 2293 
Q 2538 2584 2113 2584 
z
M 3366 4563 
L 3366 3988 
Q 3128 4100 2886 4159 
Q 2644 4219 2406 4219 
Q 1781 4219 1451 3797 
Q 1122 3375 1075 2522 
Q 1259 2794 1537 2939 
Q 1816 3084 2150 3084 
Q 2853 3084 3261 2657 
Q 3669 2231 3669 1497 
Q 3669 778 3244 343 
Q 2819 -91 2113 -91 
Q 1303 -91 875 529 
Q 447 1150 447 2328 
Q 447 3434 972 4092 
Q 1497 4750 2381 4750 
Q 2619 4750 2861 4703 
Q 3103 4656 3366 4563 
z
" transform="scale(0.015625)"/>
       </defs>
       <use xlink:href="#DejaVuSans-36"/>
       <use xlink:href="#DejaVuSans-30" x="63.623047"/>
      </g>
     </g>
    </g>
    <g id="xtick_11">
     <g id="line2d_17">
      <g>
       <use xlink:href="#m7a81be4eb6" x="765.746598" y="424.2096" style="stroke: #000000; stroke-width: 0.8"/>
      </g>
     </g>
     <g id="text_18">
      <!-- 80 -->
      <g transform="translate(759.384098 438.808038)scale(0.1 -0.1)">
       <defs>
        <path id="DejaVuSans-38" d="M 2034 2216 
Q 1584 2216 1326 1975 
Q 1069 1734 1069 1313 
Q 1069 891 1326 650 
Q 1584 409 2034 409 
Q 2484 409 2743 651 
Q 3003 894 3003 1313 
Q 3003 1734 2745 1975 
Q 2488 2216 2034 2216 
z
M 1403 2484 
Q 997 2584 770 2862 
Q 544 3141 544 3541 
Q 544 4100 942 4425 
Q 1341 4750 2034 4750 
Q 2731 4750 3128 4425 
Q 3525 4100 3525 3541 
Q 3525 3141 3298 2862 
Q 3072 2584 2669 2484 
Q 3125 2378 3379 2068 
Q 3634 1759 3634 1313 
Q 3634 634 3220 271 
Q 2806 -91 2034 -91 
Q 1263 -91 848 271 
Q 434 634 434 1313 
Q 434 1759 690 2068 
Q 947 2378 1403 2484 
z
M 1172 3481 
Q 1172 3119 1398 2916 
Q 1625 2713 2034 2713 
Q 2441 2713 2670 2916 
Q 2900 3119 2900 3481 
Q 2900 3844 2670 4047 
Q 2441 4250 2034 4250 
Q 1625 4250 1398 4047 
Q 1172 3844 1172 3481 
z
" transform="scale(0.015625)"/>
       </defs>
       <use xlink:href="#DejaVuSans-38"/>
       <use xlink:href="#DejaVuSans-30" x="63.623047"/>
      </g>
     </g>
    </g>
    <g id="xtick_12">
     <g id="line2d_18">
      <g>
       <use xlink:href="#m7a81be4eb6" x="826.638148" y="424.2096" style="stroke: #000000; stroke-width: 0.8"/>
      </g>
     </g>
     <g id="text_19">
      <!-- 100 -->
      <g transform="translate(817.094398 438.808038)scale(0.1 -0.1)">
       <use xlink:href="#DejaVuSans-31"/>
       <use xlink:href="#DejaVuSans-30" x="63.623047"/>
       <use xlink:href="#DejaVuSans-30" x="127.246094"/>
      </g>
     </g>
    </g>
   </g>
   <g id="matplotlib.axis_4">
    <g id="ytick_7">
     <g id="line2d_19">
      <g>
       <use xlink:href="#m158075e1cf" x="510.306545" y="424.2096" style="stroke: #000000; stroke-width: 0.8"/>
      </g>
     </g>
     <g id="text_20">
      <!-- 0 -->
      <g transform="translate(496.944045 428.008819)scale(0.1 -0.1)">
       <use xlink:href="#DejaVuSans-30"/>
      </g>
     </g>
    </g>
    <g id="ytick_8">
     <g id="line2d_20">
      <g>
       <use xlink:href="#m158075e1cf" x="510.306545" y="382.982953" style="stroke: #000000; stroke-width: 0.8"/>
      </g>
     </g>
     <g id="text_21">
      <!-- 2500 -->
      <g transform="translate(477.856545 386.782172)scale(0.1 -0.1)">
       <use xlink:href="#DejaVuSans-32"/>
       <use xlink:href="#DejaVuSans-35" x="63.623047"/>
       <use xlink:href="#DejaVuSans-30" x="127.246094"/>
       <use xlink:href="#DejaVuSans-30" x="190.869141"/>
      </g>
     </g>
    </g>
    <g id="ytick_9">
     <g id="line2d_21">
      <g>
       <use xlink:href="#m158075e1cf" x="510.306545" y="341.756307" style="stroke: #000000; stroke-width: 0.8"/>
      </g>
     </g>
     <g id="text_22">
      <!-- 5000 -->
      <g transform="translate(477.856545 345.555526)scale(0.1 -0.1)">
       <use xlink:href="#DejaVuSans-35"/>
       <use xlink:href="#DejaVuSans-30" x="63.623047"/>
       <use xlink:href="#DejaVuSans-30" x="127.246094"/>
       <use xlink:href="#DejaVuSans-30" x="190.869141"/>
      </g>
     </g>
    </g>
    <g id="ytick_10">
     <g id="line2d_22">
      <g>
       <use xlink:href="#m158075e1cf" x="510.306545" y="300.52966" style="stroke: #000000; stroke-width: 0.8"/>
      </g>
     </g>
     <g id="text_23">
      <!-- 7500 -->
      <g transform="translate(477.856545 304.328879)scale(0.1 -0.1)">
       <defs>
        <path id="DejaVuSans-37" d="M 525 4666 
L 3525 4666 
L 3525 4397 
L 1831 0 
L 1172 0 
L 2766 4134 
L 525 4134 
L 525 4666 
z
" transform="scale(0.015625)"/>
       </defs>
       <use xlink:href="#DejaVuSans-37"/>
       <use xlink:href="#DejaVuSans-35" x="63.623047"/>
       <use xlink:href="#DejaVuSans-30" x="127.246094"/>
       <use xlink:href="#DejaVuSans-30" x="190.869141"/>
      </g>
     </g>
    </g>
    <g id="ytick_11">
     <g id="line2d_23">
      <g>
       <use xlink:href="#m158075e1cf" x="510.306545" y="259.303014" style="stroke: #000000; stroke-width: 0.8"/>
      </g>
     </g>
     <g id="text_24">
      <!-- 10000 -->
      <g transform="translate(471.494045 263.102233)scale(0.1 -0.1)">
       <use xlink:href="#DejaVuSans-31"/>
       <use xlink:href="#DejaVuSans-30" x="63.623047"/>
       <use xlink:href="#DejaVuSans-30" x="127.246094"/>
       <use xlink:href="#DejaVuSans-30" x="190.869141"/>
       <use xlink:href="#DejaVuSans-30" x="254.492188"/>
      </g>
     </g>
    </g>
    <g id="ytick_12">
     <g id="line2d_24">
      <g>
       <use xlink:href="#m158075e1cf" x="510.306545" y="218.076367" style="stroke: #000000; stroke-width: 0.8"/>
      </g>
     </g>
     <g id="text_25">
      <!-- 12500 -->
      <g transform="translate(471.494045 221.875586)scale(0.1 -0.1)">
       <use xlink:href="#DejaVuSans-31"/>
       <use xlink:href="#DejaVuSans-32" x="63.623047"/>
       <use xlink:href="#DejaVuSans-35" x="127.246094"/>
       <use xlink:href="#DejaVuSans-30" x="190.869141"/>
       <use xlink:href="#DejaVuSans-30" x="254.492188"/>
      </g>
     </g>
    </g>
    <g id="ytick_13">
     <g id="line2d_25">
      <g>
       <use xlink:href="#m158075e1cf" x="510.306545" y="176.849721" style="stroke: #000000; stroke-width: 0.8"/>
      </g>
     </g>
     <g id="text_26">
      <!-- 15000 -->
      <g transform="translate(471.494045 180.64894)scale(0.1 -0.1)">
       <use xlink:href="#DejaVuSans-31"/>
       <use xlink:href="#DejaVuSans-35" x="63.623047"/>
       <use xlink:href="#DejaVuSans-30" x="127.246094"/>
       <use xlink:href="#DejaVuSans-30" x="190.869141"/>
       <use xlink:href="#DejaVuSans-30" x="254.492188"/>
      </g>
     </g>
    </g>
    <g id="ytick_14">
     <g id="line2d_26">
      <g>
       <use xlink:href="#m158075e1cf" x="510.306545" y="135.623074" style="stroke: #000000; stroke-width: 0.8"/>
      </g>
     </g>
     <g id="text_27">
      <!-- 17500 -->
      <g transform="translate(471.494045 139.422293)scale(0.1 -0.1)">
       <use xlink:href="#DejaVuSans-31"/>
       <use xlink:href="#DejaVuSans-37" x="63.623047"/>
       <use xlink:href="#DejaVuSans-35" x="127.246094"/>
       <use xlink:href="#DejaVuSans-30" x="190.869141"/>
       <use xlink:href="#DejaVuSans-30" x="254.492188"/>
      </g>
     </g>
    </g>
    <g id="ytick_15">
     <g id="line2d_27">
      <g>
       <use xlink:href="#m158075e1cf" x="510.306545" y="94.396428" style="stroke: #000000; stroke-width: 0.8"/>
      </g>
     </g>
     <g id="text_28">
      <!-- 20000 -->
      <g transform="translate(471.494045 98.195646)scale(0.1 -0.1)">
       <use xlink:href="#DejaVuSans-32"/>
       <use xlink:href="#DejaVuSans-30" x="63.623047"/>
       <use xlink:href="#DejaVuSans-30" x="127.246094"/>
       <use xlink:href="#DejaVuSans-30" x="190.869141"/>
       <use xlink:href="#DejaVuSans-30" x="254.492188"/>
      </g>
     </g>
    </g>
   </g>
   <g id="patch_118">
    <path d="M 510.306545 424.2096 
L 510.306545 57.1968 
" style="fill: none; stroke: #000000; stroke-width: 0.8; stroke-linejoin: miter; stroke-linecap: square"/>
   </g>
   <g id="patch_119">
    <path d="M 838.512 424.2096 
L 838.512 57.1968 
" style="fill: none; stroke: #000000; stroke-width: 0.8; stroke-linejoin: miter; stroke-linecap: square"/>
   </g>
   <g id="patch_120">
    <path d="M 510.306545 424.2096 
L 838.512 424.2096 
" style="fill: none; stroke: #000000; stroke-width: 0.8; stroke-linejoin: miter; stroke-linecap: square"/>
   </g>
   <g id="patch_121">
    <path d="M 510.306545 57.1968 
L 838.512 57.1968 
" style="fill: none; stroke: #000000; stroke-width: 0.8; stroke-linejoin: miter; stroke-linecap: square"/>
   </g>
   <g id="text_29">
    <!-- Power law distribution used for workplaces -->
    <g transform="translate(545.828335 51.1968)scale(0.12 -0.12)">
     <defs>
      <path id="DejaVuSans-77" d="M 269 3500 
L 844 3500 
L 1563 769 
L 2278 3500 
L 2956 3500 
L 3675 769 
L 4391 3500 
L 4966 3500 
L 4050 0 
L 3372 0 
L 2619 2869 
L 1863 0 
L 1184 0 
L 269 3500 
z
" transform="scale(0.015625)"/>
      <path id="DejaVuSans-61" d="M 2194 1759 
Q 1497 1759 1228 1600 
Q 959 1441 959 1056 
Q 959 750 1161 570 
Q 1363 391 1709 391 
Q 2188 391 2477 730 
Q 2766 1069 2766 1631 
L 2766 1759 
L 2194 1759 
z
M 3341 1997 
L 3341 0 
L 2766 0 
L 2766 531 
Q 2569 213 2275 61 
Q 1981 -91 1556 -91 
Q 1019 -91 701 211 
Q 384 513 384 1019 
Q 384 1609 779 1909 
Q 1175 2209 1959 2209 
L 2766 2209 
L 2766 2266 
Q 2766 2663 2505 2880 
Q 2244 3097 1772 3097 
Q 1472 3097 1187 3025 
Q 903 2953 641 2809 
L 641 3341 
Q 956 3463 1253 3523 
Q 1550 3584 1831 3584 
Q 2591 3584 2966 3190 
Q 3341 2797 3341 1997 
z
" transform="scale(0.015625)"/>
      <path id="DejaVuSans-6b" d="M 581 4863 
L 1159 4863 
L 1159 1991 
L 2875 3500 
L 3609 3500 
L 1753 1863 
L 3688 0 
L 2938 0 
L 1159 1709 
L 1159 0 
L 581 0 
L 581 4863 
z
" transform="scale(0.015625)"/>
      <path id="DejaVuSans-70" d="M 1159 525 
L 1159 -1331 
L 581 -1331 
L 581 3500 
L 1159 3500 
L 1159 2969 
Q 1341 3281 1617 3432 
Q 1894 3584 2278 3584 
Q 2916 3584 3314 3078 
Q 3713 2572 3713 1747 
Q 3713 922 3314 415 
Q 2916 -91 2278 -91 
Q 1894 -91 1617 61 
Q 1341 213 1159 525 
z
M 3116 1747 
Q 3116 2381 2855 2742 
Q 2594 3103 2138 3103 
Q 1681 3103 1420 2742 
Q 1159 2381 1159 1747 
Q 1159 1113 1420 752 
Q 1681 391 2138 391 
Q 2594 391 2855 752 
Q 3116 1113 3116 1747 
z
" transform="scale(0.015625)"/>
     </defs>
     <use xlink:href="#DejaVuSans-50"/>
     <use xlink:href="#DejaVuSans-6f" x="56.677734"/>
     <use xlink:href="#DejaVuSans-77" x="117.859375"/>
     <use xlink:href="#DejaVuSans-65" x="199.646484"/>
     <use xlink:href="#DejaVuSans-72" x="261.169922"/>
     <use xlink:href="#DejaVuSans-20" x="302.283203"/>
     <use xlink:href="#DejaVuSans-6c" x="334.070312"/>
     <use xlink:href="#DejaVuSans-61" x="361.853516"/>
     <use xlink:href="#DejaVuSans-77" x="423.132812"/>
     <use xlink:href="#DejaVuSans-20" x="504.919922"/>
     <use xlink:href="#DejaVuSans-64" x="536.707031"/>
     <use xlink:href="#DejaVuSans-69" x="600.183594"/>
     <use xlink:href="#DejaVuSans-73" x="627.966797"/>
     <use xlink:href="#DejaVuSans-74" x="680.066406"/>
     <use xlink:href="#DejaVuSans-72" x="719.275391"/>
     <use xlink:href="#DejaVuSans-69" x="760.388672"/>
     <use xlink:href="#DejaVuSans-62" x="788.171875"/>
     <use xlink:href="#DejaVuSans-75" x="851.648438"/>
     <use xlink:href="#DejaVuSans-74" x="915.027344"/>
     <use xlink:href="#DejaVuSans-69" x="954.236328"/>
     <use xlink:href="#DejaVuSans-6f" x="982.019531"/>
     <use xlink:href="#DejaVuSans-6e" x="1043.201172"/>
     <use xlink:href="#DejaVuSans-20" x="1106.580078"/>
     <use xlink:href="#DejaVuSans-75" x="1138.367188"/>
     <use xlink:href="#DejaVuSans-73" x="1201.746094"/>
     <use xlink:href="#DejaVuSans-65" x="1253.845703"/>
     <use xlink:href="#DejaVuSans-64" x="1315.369141"/>
     <use xlink:href="#DejaVuSans-20" x="1378.845703"/>
     <use xlink:href="#DejaVuSans-66" x="1410.632812"/>
     <use xlink:href="#DejaVuSans-6f" x="1445.837891"/>
     <use xlink:href="#DejaVuSans-72" x="1507.019531"/>
     <use xlink:href="#DejaVuSans-20" x="1548.132812"/>
     <use xlink:href="#DejaVuSans-77" x="1579.919922"/>
     <use xlink:href="#DejaVuSans-6f" x="1661.707031"/>
     <use xlink:href="#DejaVuSans-72" x="1722.888672"/>
     <use xlink:href="#DejaVuSans-6b" x="1764.001953"/>
     <use xlink:href="#DejaVuSans-70" x="1821.912109"/>
     <use xlink:href="#DejaVuSans-6c" x="1885.388672"/>
     <use xlink:href="#DejaVuSans-61" x="1913.171875"/>
     <use xlink:href="#DejaVuSans-63" x="1974.451172"/>
     <use xlink:href="#DejaVuSans-65" x="2029.431641"/>
     <use xlink:href="#DejaVuSans-73" x="2090.955078"/>
    </g>
   </g>
  </g>
 </g>
 <defs>
  <clipPath id="p4dfa732abe">
   <rect x="116.46" y="57.1968" width="328.205455" height="367.0128"/>
  </clipPath>
  <clipPath id="p59f459653b">
   <rect x="510.306545" y="57.1968" width="328.205455" height="367.0128"/>
  </clipPath>
 </defs>
</svg>
